<?xml version="1.0" encoding="utf-8"?>
<!-- Generator: Adobe Illustrator 23.0.3, SVG Export Plug-In . SVG Version: 6.00 Build 0)  -->
<svg version="1.1" id="Calque_1" xmlns="http://www.w3.org/2000/svg" xmlns:xlink="http://www.w3.org/1999/xlink" x="0px" y="0px"
	 viewBox="0 0 200 200" style="enable-background:new 0 0 200 200;" xml:space="preserve">
<style type="text/css">
	.st0{fill:#2E3192;}
	.st1{fill:#FFFFFF;}
	.st2{fill:none;stroke:#FFFFFF;stroke-miterlimit:10;}
	.st3{fill:#040404;}
	.st4{fill:#8B9AD4;}
	.st5{fill:#717EB9;}
	.st6{fill:#56639F;}
	.st7{fill:#E8ECF5;}
	.st8{fill:#8691BD;}
	.st9{fill:#37375D;}
</style>
<g>
	<path class="st0" d="M-256,195h-119c-19.3,0-35-15.7-35-35V41c0-19.3,15.7-35,35-35h119c19.3,0,35,15.7,35,35v119
		C-221,179.3-236.7,195-256,195z"/>
</g>
<path class="st1" d="M-270.3,49.5c-0.4-2.7-2.5-6.3-8.6-7.4c-6.1-1.1-13.3,2.5-18.7,4.3c-4.3-3.5-10.5-5.4-17.3-5.4
	c-6.8,0-13,1.9-17.3,5.4c-5.4-1.8-12.7-5.5-18.8-4.3c-6.1,1.1-8.2,4.7-8.6,7.4c-1.7,10.3,4.1,11.6,3,27c-1.2,15.9,8.8,26,13.3,26.3
	c6.3,0.4,10.9-4,13.8-11.1c0.9,1.2,1.9,2.2,3,3.2l0,0.4c-0.1,10-7,17.5-9.8,17.5h0l-0.5,0l0,0.5c-0.1,0.8,1.7,1.1,1.8,1.1
	c0.4,0.1,0.8,0.1,1.2,0.1c5.3,0,10.6-6.4,12.6-15.3c0.2,6.7,1.6,13.3,4.1,19.5c1.6,4.1,5.1,7.1,9.3,8c6.1,1.1,8.8-1.4,8.8-4.9
	c0-3.8-4.1-0.7-7.4-5.9c-2.3-4.1-2-10.8-1.9-16.4c2,8.8,7.2,15,12.5,15c0.4,0,0.8,0,1.2-0.1c0,0,1.8-0.3,1.8-1.1l-0.1-0.5l-0.5,0h0
	c-2.8,0-9.7-7.5-9.8-17.5l0-0.4c1.1-1,2.1-2,3.1-3.2l0,0c2.9,7,7.5,11.4,13.7,11c4.5-0.3,14.5-10.4,13.3-26.3
	C-274.4,61.1-268.6,59.8-270.3,49.5z M-334.7,113.4c3.6-1.9,8.6-8.8,9.1-17c1,0.8,2.1,1.4,3.2,2C-324.2,107.4-329.6,114-334.7,113.4
	z M-295.3,113.4c-5.1,0.6-10.5-6-12.3-15c1.1-0.5,2.2-1.2,3.2-1.9C-303.9,104.7-298.9,111.6-295.3,113.4z M-298.8,70h-2.9
	c-0.3,3.1-3,5.3-6.1,5c-2.7-0.3-4.8-2.4-5-5h-4.4c-0.3,3.1-3,5.3-6.1,5c-2.7-0.3-4.8-2.4-5-5h-2.9c-0.3,0-0.5-0.2-0.5-0.5
	s0.2-0.5,0.5-0.5h2.9c0.3-3.1,3-5.3,6.1-5c2.7,0.3,4.8,2.4,5,5h4.4c0.3-3.1,3-5.3,6.1-5c2.7,0.3,4.8,2.4,5,5h2.9
	c0.3,0,0.5,0.2,0.5,0.5S-298.5,70-298.8,70z"/>
<line class="st2" x1="-410.5" y1="149" x2="-220.5" y2="149"/>
<rect x="-378.1" y="160.8" style="fill:none;" width="126.8" height="21.9"/>
<text transform="matrix(1 0 0 1 -342.8149 181.9404)" class="st1" style="font-family:'Comfortaa'; font-size:27px; letter-spacing:5;">PHP</text>
<path class="st3" d="M-315.1-31c-47.8,0-85.9-38.2-86.3-85.9c-0.4-42,31.7-86.6,86.8-86.4c52.2,0.2,85.9,41.5,86,86.4
	C-228.6-69.4-267.4-31-315.1-31z M-313.2-135.1c-6.6-5.9-12.2-11.4-20.2-13c-8.9-1.7-18.2,2-22.6,9.2c-4.3,7.1-3.3,14.8,2.9,22.4
	c1.6,1.9,3.4,3.7,5.1,5.5c3.1,3.3,4.9,6.9,1.6,11.1c-3.3,4.1-7.6,4.3-12.1,2.7c-5.8-2-3.1-5.8-1.8-9.4c1-2.8,0.2-5.5-2.2-7.5
	c-2.1-1.8-4.6-2.1-7-0.7c-2.7,1.5-3.5,4.2-3.3,7.2c0.2,4.2,2.3,7.4,5.4,10c7.2,6.1,19.2,7.4,27.6,3c10.2-5.4,13-15.8,6.4-25.3
	c-2.5-3.7-5.8-6.7-8.5-10.3c-4-5.4-1.9-11.5,4.3-13.1c10.1-2.6,23.5,10.4,21.1,20.4c-1.5,6.5-2.7,13.1-4,19.7
	c-2.2,10.9-3.9,22-8.7,32.2c-2.7,5.7-6.4,10.5-12.9,12.4c-1.3,0.4-2.8,0.5-3.6-1c-0.6-1.3,0.3-2.1,1.1-2.8c3.8-3.3,3.5-6.8,0.1-10
	c-3.4-3.2-7.2-2.7-10.6,0.1c-3.6,3-4.8,6.9-2.3,11.2c2.8,5,7.4,6.5,12.7,6.5c9.9-0.2,17.5-5.1,24-12c11.1-11.8,16.1-26.5,19.1-42
	c0.9-4.7,0.8-9.8,3-13.8c2.7-4.9,8.6-1.1,12.9-2.5c6-2,11.7-4,13.8-10.8c0.8-2.5,0.1-5-2.1-6.8c-1.7-1.4-3.6-1.6-5.5-0.6
	c-2.1,1-3.6,2.7-3.5,5.2c0.1,8.1-2.9,10.7-11,9.9c-3-0.3-3.7-1.2-3.2-4.1c1.6-8.8,3-17.6,6.9-25.8c2.1-4.4,5-8.3,10.1-9.2
	c3.9-0.7,8.7-2,5.4,5.4c-2,4.5,0.1,7.8,4.9,8.5c4.7,0.7,7.5-1.9,8.1-6.4c0.8-5.7-2.8-8.9-7.6-10.4c-10.4-3.3-19.2,0.4-26.8,7.4
	C-304.3-155.6-309-146.1-313.2-135.1z"/>
<g>
	<path class="st4" d="M67.1,127c-0.1-5.5-0.1-10.9-0.2-16.4c0-3.2-0.4-3.4-3.1-1.9c-0.2,0.1-0.6,0.2-0.9,0.1
		c-2.4-0.7-4.7-1.4-7.4-2.2c4.9-4.6,6.7-10.3,7-16.6c0-0.8,0.4-1.2,1-1.6c0.7-0.5,1.4-0.9,1.9-1.6c0.6-0.8,1.8-1.8,0.6-2.7
		c-1-0.8-1.4,0.7-1.9,1.3c-1.8,2.2-3.6,2.4-6,0.6c-0.6-0.5-1.2-1.5-2-0.4c-0.7,0.9,0.3,1.4,0.9,2c0.2,0.2,0.5,0.5,0.8,0.6
		c3.6,0.8,2.9,3.3,2.4,5.7c-0.6,2.8-1.4,5.4-3,7.8c-1.9,2.9-4.3,4.5-8,4.5c-5.8,0-9.9,3.4-11.4,9.2c-1.4,5.3-1.5,10.8-2,16.2
		c-0.5,5.2-0.8,10.4-1.3,15.6c-0.3,3.6-1.9,5.2-5.5,5.6c-1.4,0.2-2.8,0.2-4.2,0c-4.4-0.4-5.9-2.2-6-6.6c-0.1-11.1-0.2-22.2-0.3-33.3
		c0-1.1,0.1-2.1,0.2-3.2c1.9-0.1,2.5-1.1,2.5-2.9c0.2-7.7,0.5-15.4,1-23c0.4-7,2.4-13.5,8.3-18.1c5.4-4.3,11.8-6.1,18.5-7.2
		c0.6-0.1,1.1-0.1,1.6,0.5c1.2,1.6,2.4,0.8,3.7,0c3.3-2.2,6.5-4.5,9.9-6.6c6.2-3.9,12.7-6.7,20.3-5.2c0,0-0.1,0-0.1,0
		c0.2,0.2,0.4,0.3,0.6,0.5c2,1,2.8,3,3.6,4.9c4,9.4,4.8,19.2,2.9,29.2c-1.2,6.4-5.4,10.2-12,11.2c-2.2,0.3-4.2,1-5.8,2.5
		c-1.4,1.3-2,3-2,4.9c0,0.9,0.1,1.9,1.4,2c1.2,0.1,1.3-0.9,1.5-1.8c0.4-3,1.6-4.1,4.9-4.5c-0.2,2.1-0.6,4.2-1.2,6.3
		c-1,3.3,0,4.6,3.4,4.8c0.4,0,0.8,0.1,1.2,0.1c1,3.9-1.7,6.9-3.7,9.1c-2.8,3.1-4.3,6.9-6.8,10C69.7,129.6,70.1,129.9,67.1,127z
		 M43.4,86c0.4-0.2,0.7-0.4,1.1-0.6c0.3-0.2,0.6-0.5,0.8-0.7c0.1-0.2,0.3-0.3,0.4-0.5c3.5-3.7,2.6-6.1-3.3-8.5
		c0.3-1.3,2-1.4,2.2-2.8c-6-0.5-11.5,4.2-9.1,9.3c0.1,0.6,0.4,1.1,1,1.4c0.1,0.1,0.2,0.3,0.3,0.4C38.5,86.7,40.4,87.2,43.4,86z
		 M44.7,66.6c0.6,0.1,1.3,0.2,1.5-0.5c0.2-0.7-0.6-0.9-1.1-1c-1-0.2-1.9-0.5-2.9-0.6c-4.4-0.4-8.6,0.1-11.9,3.5
		c-0.7,0.8-1.3,1.6-0.3,2.6c0.8,0.8,1.7,0.5,2.4-0.2C35.7,66.6,40,65.8,44.7,66.6z"/>
	<path class="st5" d="M157.7,67.7c0.5,0.4,0.8,0.9,1,1.5c-0.6,0.8-0.2,1.5,0.2,2.3c1.1,2.3,0.1,4.3-2.4,4.6
		c-0.7,0.1-1.1,0.3-1.4,0.8c-0.3-0.1-0.6-0.2-0.9-0.3c-0.4-0.6-1.1-0.8-1.8-0.8c-0.6,0.6-1.1,0.2-1.7,0c-1.3-0.7-2.6-0.6-4-0.1
		c-0.5,0-1.1,0-1.6,0c-2.6-0.4-5.2-0.5-7.8,0c-2,0.9-2.2,2.7-2.5,4.5c-1.5,7.3-2.9,14.7-4.5,22c-0.8,3.7-0.8,3.7,2.4,4.8
		c1.2,2.7-0.3,4.7-2.1,6.3c-2.4,2.2-3.6,5.3-6.3,7.3c-0.1,0.1-0.4,0.1-0.4,0.2c-1.3,3.7-4.5,3.1-7.4,3.2c-2.9,0.2-5.8,0.5-8.7,0
		c-1.3-0.2-2.2-0.5-2.2-2c0-1-0.6-1.6-1.6-1.6c-1.2,0-1.4,1-1.5,1.9c-0.1,2.1-0.1,4.1-0.1,6.2c0,5.4,0,10.8-0.1,16.1
		c0,6.7-1.9,9.2-8.3,11.1c-2.3,0.7-4.7,0.9-7.1,1c-1.3,0.1-1.7-0.4-1.3-1.8c1.5-5.3,0.3-9.9-3.9-13.6c-0.8-0.7-1.2-1.8-1.7-2.7
		c-0.9-1.7-15.7,2.4-17.7,1.9c0-1.3-3-16.8-2.5-18.2c1.8-6.1,6.4-10,10.5-14.3c1.9-2,4.2-3.7,5.2-6.5c0.7-1.7,1.8-2.9,3.6-3.5
		c1-0.3,2-0.9,1.6-2.1c-0.7-2.6,1.2-3.3,2.8-4.3c0.6-0.4,17.7,8.6,17.8,7.4c-0.7-1-18.1-7.4-18.6-9.3c3-1.1,5.1-3.4,7.2-5.8
		c0.4,1,7.3-18.2,7.2-17.5c-0.2,1.3,8.1,31.3,9.4,32.3c2.6,2-10-27.7-9.4-30.8c0.7-3.6,0.7,3.6,1.5,0c0.6-3.1,21.3,15.3,23,15.2
		c2.1,0,1.5,1.6,1.3,2.7c-0.4,2.5-0.9,5-1.4,7.6c-1.4,6.9-0.6,5.6,5.1,5.8c1.9,0,3-0.9,3.3-2.7c0.9-4.4,1.8-8.8,2.5-13.2
		c0.5-3.5-1.6-6.3-5.1-7.1c-1.9-0.4-19.6,1.7-21.5,1.9c-2.4,0.2-3.3-11.6-2.6-14c0.5-1.7,3.4-2.4,1.1-3.4c2.1-3.3,6.6-2.5,8.7-5.8
		c0.8-1.3,14.4,0.2,14.5-1.5c4.1,0.5,8.3,2.9,12.2,4.4c2.8,1.1,5.7,2.3,8.6,3.1c0.4,1,1.4,1.4,2.2,1.9
		C153.2,64.4,155,66.7,157.7,67.7z"/>
	<path class="st6" d="M124.4,120.6c2.7-1.9,3.9-5,6.3-7.3c1.8-1.6,3.2-3.6,2.1-6.3c1-0.1,2-0.1,3-0.1c2,0,3-1,3.5-2.8
		c1.1-4.7,1.2-4.6,5.8-4.8c0.5,0,1,0,1.5,0c4.5-0.2,8.1-2.1,10.7-5.8c4.2-5.7,3.2-13-2.2-16.5c0.3-0.5,0.8-0.7,1.4-0.8
		c2.5-0.3,3.6-2.2,2.4-4.6c-0.4-0.8-0.8-1.5-0.2-2.3c6,10.8,7.4,21.9,3.1,33.6c-0.5,1.2-1,2.3-0.3,3.7c0.4,0.8,0.2,2,0.2,2.9
		c0,11.6,0,23.2,0,34.8c0,5.7-2.7,9.2-8.2,10.5c-2.2,0.5-4.4,0.7-6.6,1c-1.6,0.2-2.3-0.2-1.7-2.1c1.5-4.4-0.3-10.3-3.9-13.2
		c-0.9-0.8-1.2-1.8-1.5-2.8c-1.5-3.8-4.3-4.7-7.2-2c-1.5,1.4-3.4,1.7-5,2.6c-1.3,0.7-1.2-0.9-1.2-1.7c-0.1-4.5-0.1-8.9-0.1-13.4
		C126.2,121.9,126.1,120.7,124.4,120.6z"/>
	<path class="st7" d="M84.6,47c-7.6-1.5-14.1,1.3-20.3,5.2c-3.3,2.1-6.6,4.4-9.9,6.6c-1.2,0.8-2.4,1.6-3.7,0c-0.4-0.6-1-0.6-1.6-0.5
		c-6.7,1.1-13.1,2.9-18.5,7.2c-5.8,4.6-7.8,11.1-8.3,18.1c-0.5,7.7-0.7,15.3-1,23c-0.1,1.8-0.6,2.8-2.5,2.9
		c0.1-10.7-0.3-21.3,0.4-32c0.8-11.9,7-19.2,18.4-22.4c4.3-1.2,8.7-2.1,13.1-2.5c0.6,0,1.3-0.5,1.6,0.6c0.7,2.2,1.9,1.4,3.2,0.6
		c4.1-2.7,8.3-5.3,12.7-7.6c1.9-1,3.8-2,6-2.3C78.2,43.6,81.7,44,84.6,47z"/>
	<path class="st4" d="M148.6,61c-2.9-0.8-5.8-2-8.6-3.1c-3.9-1.5-8-1.8-12.1-2.3c-4,0-7.9-0.1-11.9-0.1c-1.5,0-2.4,0.6-2.7,2.2
		c-0.4,1.9-0.8,4-2.3,5.4c-2.2,2-3.5,4.6-5.4,6.7c-1,1.2-2.7,2-3.2,3.3c-0.7,1.5-1.3,2.2-3,2.2c-1.7,0-3.2-0.1-3.8-2
		c-0.1-5.9-2.8-17-4-22.8c1.3-0.5,8.7-1.7,10.2-1.5c4.8,0.9,6.9-0.1,11.6,0c1.3,0,0.3,3.2,0.4,1.7c5.5-0.5,10.9-0.4,16.4,0.8
		c2.5,0.6,5,0.8,7.5,1.5c5.1,1.5,9.4,4.2,13.5,7.4C150.5,61.9,149.5,60.8,148.6,61z"/>
	<path class="st7" d="M98.9,98.5c-2.7,0.7-5.4,1-8.1,0.8c-2.4-0.2-2.9,1.1-3.2,3c-0.7,3.9-1.1,4.3-4.5,4.7c-0.4,0-0.8-0.1-1.2-0.1
		c-3.4-0.2-4.4-1.5-3.4-4.8c0.6-2.1,1-4.2,1.2-6.3c1-0.6,1.8-0.8,1.5,0.8c-0.4,2.2-0.8,4.4-1.3,6.6c-0.4,1.6-0.1,2.5,1.9,2.5
		c3.8,0,3.8,0.1,4.6-3.7c0.8-3.9,0.8-3.9,5-3.9c4.2,0,8.2-0.3,11.5-3.5c2.9-2.9,4.1-6.3,3.8-10.3c-0.3-4.2-3.1-6.4-8.3-6.9
		c-0.9-0.1-2.8,0.9-2.6-1.4c4.7,0.1,9.4,0.3,11.7,5.6c0.2,0.4,0.4,0.7,0.9,0.6c0.4-0.1,0.6-0.5,0.7-0.9c0.4-2,0.8-4.1,1.2-6.1
		c1.3-6.8,1.3-6.8,8.2-6.8c2.3,1.1,1.8,3,1.3,4.7c-0.7,2.3,0.1,3.1,2.4,2.9c1.9-0.2,3.8,0.1,5.7,0.5c3.5,0.8,5.6,3.6,5.1,7.1
		c-0.7,4.4-1.6,8.8-2.5,13.2c-0.4,1.7-1.4,2.7-3.3,2.7c-5.6-0.1-6.5,1.2-5.1-5.8c0.5-2.5,1-5,1.4-7.6c0.2-1.1,0.8-2.8-1.3-2.7
		c-1.7,0-4.2-1.3-4.8,1.8c-0.7,3.6-1.4,7.1-2.1,10.7c-0.6,3.1-5.7,5-8.2,3.1c-1.3-1-0.9-2.4-0.7-3.7c0.1-0.7,0.5-1.4,0.1-2.4
		C104,95.1,101.9,97.4,98.9,98.5z M120,81.7c4.9,0,5.2,0.3,4.4,5.1c-0.5,2.8-1.1,5.7-1.6,8.5c-0.2,0.9-1.1,2.4,0.7,2.5
		c1.7,0.1,4.5,1.2,5.1-1.1c1.2-4.7,2.5-9.5,2.6-14.4c0.1-2.6-1.3-4-3.9-4.7c-1.7-0.5-3.4-0.4-5.2-0.5c-4.9-0.2-4.9-0.2-4-4.9
		c0.1-0.8,0.6-1.7-0.1-2.4c-1.2-1.3-5.6-0.1-6,1.7c-1.6,8.1-3.2,16.2-4.7,24.3c-0.1,0.6-0.4,1.3,0.3,1.8c1.6,1.3,5.5-0.1,5.9-2.1
		c0.7-3.4,1.3-6.8,2-10.2C116.3,81.7,116.4,81.7,120,81.7z"/>
	<path class="st4" d="M64,113.6c0,4,0,7.9,0,11.9c-2.7,1.9-5.7,3.1-9.1,3c0-5.6,0-11.2,0-16.9c0.9-0.2,1.5-0.9,1.9-1.6
		c2.4,0.4,4.7,1.2,6.9,2.2C63.4,112.7,63.2,113.2,64,113.6z"/>
	<path class="st4" d="M129.7,148.4c0.2-3.9,1.2-7.7,3.2-11.1c1.7-2.8,3.5-2.7,5.2,0c1.1,1.8,1.3,3.1,0,5.3
		c-2.3,3.6-3.7,7.6-1.5,11.9c0.6,1.1,0,1.3-0.9,1.3c-2.3,0.1-3.7-1.2-4.8-2.9C129.9,151.5,129.6,150,129.7,148.4z"/>
	<path class="st4" d="M70.5,149.2c0.4-4,1.2-7.8,3.4-11.2c1.5-2.3,3-2.4,4.6-0.2c1.3,1.9,2,3.4,0.3,5.9c-2.4,3.4-3.5,7.5-1.6,11.7
		c0.6,1.3-0.1,1.4-1,1.4c-2.5,0-3.9-1.5-5-3.5C70.7,152,70.5,150.6,70.5,149.2z"/>
	<path class="st4" d="M136.5,150.5c0.2-2.7,0.8-5.2,2.3-7.5c1.2-1.9,2.3-1.9,3.5,0c1.4,2.4,2.2,5,2.3,7.7c0.1,2.9-1.8,5.2-4.1,5.2
		C138.1,155.8,136.4,153.5,136.5,150.5z"/>
	<path class="st4" d="M77.4,151.1c0.3-2.4,0.8-5.1,2.4-7.4c1-1.5,2.2-1.5,3.1-0.1c1.7,2.6,2.6,5.6,2.4,8.7c-0.1,2.8-2,4.6-4.3,4.4
		C78.8,156.6,77.3,154.4,77.4,151.1z"/>
	<path class="st4" d="M63.2,147.3c-1.5,0.2-2.8,2-4.5,0.4c-1.6-1.6-1.7-3.5-1.3-5.5c0.3-1.5,0.8-3,1.3-4.5c0.3-0.7,0.6-1.7,1.6-1.7
		c1.1,0,1.3,1.1,1.8,1.8c1.8,2.7,1.7,5.6,1,8.6C63,146.7,63.1,147,63.2,147.3L63.2,147.3z"/>
	<path class="st5" d="M115,146.5c-1.6-0.8-2.3-2.2-2.5-3.7c-0.6-3.8,0.5-7.4,1.9-10.8c0.4-0.9,1.2-2.2,2.7-1.4
		c1.1,0.6,2.5,3.9,1.8,4.5c-3.3,3-3.4,7-3.7,10.9C115.3,146.2,115.2,146.2,115,146.5z"/>
	<path class="st5" d="M121.3,148.3c-2.9,0.9-4.7-0.2-4.9-3.1c-0.2-2.7,0.4-5.3,1.7-7.6c0.8-1.5,1.9-1.8,2.7-0.1
		C122.4,141,123.5,144.6,121.3,148.3L121.3,148.3z"/>
	<path class="st4" d="M56,146.1c-2.2-0.9-2.6-2.8-2.8-4.8c-0.2-3.3,0.8-6.3,2-9.3c0.5-1.3,1.5-2.3,2.8-1.2c1.2,1,2.8,2.7,1.5,4.1
		c-2.9,3.2-3.3,7-3.3,11C56.2,145.9,56.1,146,56,146.1z"/>
	<path class="st4" d="M50.2,49.7c3.8-5.2,9.6-7.3,15.2-5.3C60.8,47.9,56.2,50.5,50.2,49.7z"/>
	<path class="st6" d="M122.4,137.8c-1.1-1.2-1.9-2.5-2.4-4.1c-1.1-3.3-1.9-3.8-5.3-3.7c-0.6,0-0.8-0.2-0.8-0.6
		c0-0.8-0.2-1.9,0.9-2.1c2.4-0.3,4.9-0.5,7.4-0.6c0.8,0,1.1,0.7,1.1,1.4c0,3.2,0,6.5,0,9.7C123,137.8,122.7,137.8,122.4,137.8z"/>
	<path class="st8" d="M90,91.3c1.8-2.7,3.6-5.4,4.5-8.6c1.5,0.7,4-0.2,4.1,2.6c0.1,1.5-0.3,3-1,4.3C96.4,91.8,91.8,92.8,90,91.3z"/>
	<path class="st4" d="M71.9,139c-0.6,2.6-1.8,4.8-2.1,7.2c-0.3,2.2-0.5,4.4,0.1,6.6c0.1,0.4,0.6,1,0,1.3c-0.4,0.2-1,0.1-1.4-0.1
		c-0.6-0.3-1.1-0.7-1.5-1.2C64.4,149.1,67.2,140.6,71.9,139z"/>
	<path class="st8" d="M54.9,128.4c3.4,0.1,6.4-1,9.1-3c0,4.4,0,8.8,0,13.7c-1.6-2.6-2.8-4.8-3.7-7.1c-0.8-2-1.7-4.1-4.7-2.4
		C54.6,130.2,54.9,129,54.9,128.4z"/>
	<path class="st4" d="M130.8,138.4c0.1,1.6-0.8,2.8-1.2,4.2c-1,3.6-1.1,5.8-0.2,10.6c-2.2-0.3-3.4-1.7-4-3.5
		c-0.9-2.8,1.3-9.1,3.6-10.8C129.5,138.4,130,138,130.8,138.4L130.8,138.4z"/>
	<path class="st4" d="M172,64.4c4-1.4,8.1-2.3,12.4-1.5c0.9,0.2,2.3,0.4,2.3,1.4c0,1.1-1.4,1.3-2.3,1.4
		C180.1,66.4,176,65.8,172,64.4z"/>
	<path class="st7" d="M90,91.3c1.8,1.5,6.4,0.5,7.6-1.7c0.7-1.3,1-2.8,1-4.3c-0.1-2.8-2.6-1.9-4.1-2.6c0.2-1.9,1.6-1,2.4-0.9
		c1.5,0.1,2.6,0.9,3,2.5c1,4.3-1.8,8.3-6.2,8.9c-1.1,0.1-2.3,0.2-3.4,0.3c-0.8,0-1.9,0.3-2-0.8C88.2,91.8,89.1,91.4,90,91.3z"/>
	<path class="st8" d="M148.6,61c0.8-0.1,1.9,1,2.5-0.5c2.7,2,4.8,4.4,6.6,7.3c-2.7-1.1-4.5-3.4-6.8-4.9C150.1,62.4,149,62,148.6,61z
		"/>
	<path class="st4" d="M175.5,68.4c2,0.1,4.1,0.3,6.1,0.4c0.5,0,1.3-0.1,1.3,0.8c0,0.8-0.6,1.1-1.3,1.2
		C179.2,71.1,177.2,70.3,175.5,68.4z"/>
	<path class="st6" d="M158.6,63.9c3,0,5.3,0,7.7,0c0.4,0,0.8,0.1,1,0.6c0.1,0.4-0.1,0.6-0.4,0.8C165.8,65.8,160.1,65.2,158.6,63.9z"
		/>
	<path class="st8" d="M174.9,60.4c2.1-1.9,3.8-2.7,5.9-2.3c0.6,0.1,1.2,0.4,1.1,1.1c0,0.9-0.8,0.7-1.3,0.7
		C178.9,60.1,177.2,60.2,174.9,60.4z"/>
	<path class="st5" d="M67.1,135.9c1.3,0.4,1.6,2.3,3.3,2.1c-0.3,0.3-0.5,0.6-0.8,0.9c-0.5,0.5-1.1,1.2-1.9,0.9
		c-1-0.4-0.6-1.4-0.6-2.1C67,137.1,67,136.5,67.1,135.9z"/>
	<path class="st6" d="M121.3,148.3c0.7,0.4,1.5-1.2,2.1,0.2c0.2,0.5,0.5,1.1,0.2,1.7c-0.4,0.6-1,0.2-1.6,0.1
		C120.6,150,121.5,149,121.3,148.3C121.3,148.3,121.3,148.3,121.3,148.3z"/>
	<path class="st5" d="M63.2,147.3c1.6-0.1,0.9,1.2,1,1.9c0.1,0.4-0.2,0.8-0.7,0.8c-0.5-0.1-1-0.2-1.3-0.5c-0.4-0.4,0.1-0.7,0.3-1
		C62.9,148.2,63.2,147.8,63.2,147.3C63.2,147.3,63.2,147.3,63.2,147.3z"/>
	<path class="st5" d="M71.6,137.9c0.1-2,1.5-2.4,3.1-2.4C73.7,136.3,73.4,138,71.6,137.9z"/>
	<path class="st8" d="M56.8,109.9c-0.4,0.8-1,1.4-1.9,1.6C54.6,110,54.9,109,56.8,109.9z"/>
	<path class="st8" d="M64,113.6c-0.8-0.3-0.6-0.9-0.3-1.5C64.3,112.5,64.1,113,64,113.6z"/>
	<path class="st7" d="M85.1,47.4c-0.2-0.2-0.4-0.3-0.6-0.5C84.7,47.1,84.9,47.2,85.1,47.4z"/>
	<path class="st4" d="M130.8,138.4c0-0.1,0-0.1,0-0.2c0,0,0.1,0.1,0.1,0.1C130.9,138.3,130.8,138.4,130.8,138.4
		C130.8,138.4,130.8,138.4,130.8,138.4z"/>
	<path class="st4" d="M56.3,145.8c0,0.1,0.1,0.2,0.1,0.3c-0.1,0-0.2,0-0.3-0.1C56.1,146,56.2,145.9,56.3,145.8z"/>
	<path class="st9" d="M36.7,84c-0.1-0.1-0.2-0.3-0.3-0.4c-0.1-0.6-0.5-1.1-1-1.4c-2.4-5,3.2-9.8,9.1-9.3c-0.2,1.3-1.9,1.5-2.2,2.8
		c5.9,2.4,6.8,4.8,3.3,8.5c-0.1,0.2-0.3,0.3-0.4,0.5c-0.3,0.2-0.6,0.5-0.8,0.7c-0.2-0.2-0.3-0.3-0.5-0.5c-0.1-0.2-0.2-0.5-0.3-0.5
		c-1.4-0.6-3.7-0.6-1.5-3c0.3-0.3-0.1-0.5-0.3-0.7c-0.4-0.3-1.3-0.4-0.7-1.2c0.4-0.7,1.1-1,1.9-0.9c0.5,0,1.2,0.6,1.3-0.3
		c0.1-0.8-0.7-0.7-1.3-0.8c-2.2-0.4-4.5,1.1-5.9,3.8c-0.4,0.4-0.4,0.7-0.1,1.1c0.1,0.4,0.2,0.7,0.3,1.1C37.2,83.6,37,83.8,36.7,84z"
		/>
	<path class="st9" d="M44.7,66.6c-4.8-0.8-9,0.1-12.4,3.8c-0.7,0.7-1.6,1-2.4,0.2c-1-0.9-0.4-1.8,0.3-2.6c3.3-3.4,7.5-3.9,11.9-3.5
		c1,0.1,2,0.3,2.9,0.6c0.5,0.1,1.3,0.3,1.1,1C46.1,66.8,45.3,66.7,44.7,66.6z"/>
	<path class="st6" d="M43.4,86c-3,1.3-4.8,0.7-6.6-1.9c0.2-0.2,0.4-0.4,0.7-0.6c1.5,1.4,3.1,2.5,5.3,2C42.9,85.6,43.1,85.8,43.4,86z
		"/>
	<path class="st6" d="M35.5,82.2c0.5,0.4,0.8,0.8,1,1.4C35.9,83.3,35.5,82.9,35.5,82.2z"/>
	<path class="st9" d="M44.5,85.4c-0.4,0.2-0.7,0.4-1.1,0.6c-0.2-0.2-0.4-0.4-0.7-0.5c0.4-0.2,0.9-0.4,1.3-0.5
		C44.1,85.1,44.3,85.2,44.5,85.4z"/>
	<path class="st6" d="M45.3,84.7c0.1-0.2,0.3-0.3,0.4-0.5C45.5,84.3,45.4,84.5,45.3,84.7z"/>
	<path class="st7" d="M155,76.9c5.4,3.5,6.3,10.8,2.2,16.5c-2.6,3.6-6.2,5.6-10.7,5.8c-0.5,0-1,0-1.5,0c-4.7,0.1-4.7,0.1-5.8,4.8
		c-0.5,1.9-1.5,2.8-3.5,2.8c-1,0-2,0.1-3,0.1c-3.3-1.1-3.2-1.1-2.4-4.8c1.5-7.3,3-14.7,4.5-22c0.4-1.8,0.6-3.6,2.5-4.5
		c2.6,0,5.2,0,7.8,0c0.5,0,1.1,0,1.6,0c1.3,0,2.6,0.1,4,0.1c0.6,0.2,1.1,0.6,1.7,0c0.5,0.6,1.1,0.6,1.8,0.8
		C154.4,76.7,154.7,76.8,155,76.9z M145.2,77.1c-2.6,0-4.6,0-6.6,0c-1.1,0-1.9,0.4-2.1,1.6c-1.6,8.3-3.3,16.7-4.9,25
		c-0.2,1,0.1,1.5,1.2,1.7c3.7,0.7,4.7,0,5.4-3.6c0.1-0.6,0.3-1.1,0.3-1.7c0.1-1.8,1.2-2.3,2.8-2.3c2,0,4,0,5.9-0.2
		c6.4-0.6,11-5.7,11.2-12.1c0.1-4.1-2-6.9-6-7.9C149.8,77,147.2,77.2,145.2,77.1z"/>
	<path class="st6" d="M145.1,75.6c-2.6,0-5.2,0-7.8,0C139.9,75.1,142.5,75.2,145.1,75.6z"/>
	<path class="st6" d="M150.7,75.8c-1.3,0-2.6-0.1-4-0.1C148.1,75.2,149.4,75.1,150.7,75.8z"/>
	<path class="st6" d="M154.1,76.6c-0.6-0.1-1.3-0.2-1.8-0.8C153.1,75.8,153.7,76,154.1,76.6z"/>
	<path class="st9" d="M120,81.7c-3.7,0-3.7,0-4.4,3.6c-0.7,3.4-1.3,6.8-2,10.2c-0.4,2.1-4.3,3.4-5.9,2.1c-0.7-0.5-0.4-1.2-0.3-1.8
		c1.6-8.1,3.1-16.2,4.7-24.3c0.4-1.8,4.7-3,6-1.7c0.6,0.7,0.2,1.6,0.1,2.4c-0.9,4.8-0.9,4.7,4,4.9c1.7,0.1,3.5,0,5.2,0.5
		c2.6,0.7,4,2.1,3.9,4.7c-0.2,4.9-1.4,9.7-2.6,14.4c-0.6,2.3-3.3,1.2-5.1,1.1c-1.8-0.1-0.9-1.6-0.7-2.5c0.5-2.8,1.1-5.7,1.6-8.5
		C125.3,82,125,81.7,120,81.7z"/>
	<path class="st7" d="M44,84.9c-0.4,0.2-0.9,0.4-1.3,0.5c-2.2,0.5-3.8-0.6-5.3-2c-0.1-0.4-0.2-0.7-0.3-1.1c0.6-0.4,0.6-0.7,0.1-1.1
		c1.5-2.7,3.7-4.2,5.9-3.8c0.5,0.1,1.3,0.1,1.3,0.8c-0.1,1-0.7,0.4-1.3,0.3c-0.8-0.1-1.5,0.2-1.9,0.9c-0.5,0.8,0.4,0.9,0.7,1.2
		c0.3,0.2,0.6,0.4,0.3,0.7c-2.2,2.4,0.1,2.4,1.5,3C43.8,84.4,43.9,84.7,44,84.9z"/>
	<path class="st6" d="M37.1,81.2c0.6,0.4,0.6,0.8-0.1,1.1C36.7,81.9,36.7,81.5,37.1,81.2z"/>
	<path class="st9" d="M145.2,77.1c2,0,4.7-0.1,7.3,0.5c4,1,6.1,3.8,6,7.9c-0.2,6.4-4.8,11.5-11.2,12.1c-2,0.2-4,0.3-5.9,0.2
		c-1.7,0-2.7,0.5-2.8,2.3c0,0.6-0.2,1.1-0.3,1.7c-0.7,3.6-1.8,4.3-5.4,3.6c-1.1-0.2-1.4-0.7-1.2-1.7c1.6-8.3,3.3-16.7,4.9-25
		c0.2-1.2,1-1.6,2.1-1.6C140.6,77.1,142.5,77.1,145.2,77.1z M145.8,81.5c-1.2,0.5-3.4-0.9-4,1.5c-0.7,2.9-1.2,5.8-1.7,8.8
		c-0.2,0.8,0,1.4,1,1.7c5.3,1.5,10.2-1.8,10.8-7.2c0.3-2.8-0.8-4.2-3.6-4.5C147.5,81.6,146.8,81.6,145.8,81.5z"/>
	<path class="st7" d="M145.8,81.5c1,0.1,1.7,0.1,2.5,0.2c2.8,0.3,3.9,1.7,3.6,4.5c-0.6,5.4-5.4,8.7-10.8,7.2c-1-0.3-1.1-0.9-1-1.7
		c0.5-2.9,1-5.9,1.7-8.8C142.4,80.6,144.6,82,145.8,81.5z M146.2,82.8c-2.5-0.6-3.4,0.7-3.5,2.9c0,0.7-0.3,1.3-0.4,1.9
		c-1,4.9-0.4,5.4,4.5,4c0.1,0,0.2,0,0.2-0.1c2.2-0.7,4-3.8,3.5-6.4C150.2,82.4,147.8,83.2,146.2,82.8z"/>
	<path class="st5" d="M146.2,82.8c1.6,0.4,4-0.4,4.4,2.3c0.4,2.6-1.4,5.7-3.5,6.4c-0.1,0-0.2,0-0.2,0.1c-4.9,1.4-5.5,0.9-4.5-4
		c0.1-0.6,0.3-1.3,0.4-1.9C142.8,83.5,143.7,82.2,146.2,82.8z"/>
	<path class="st9" d="M130.8,138.4c-0.7-0.4-1.3,0.1-1.8,0.4c-2.4,1.8-4.5,8-3.6,10.8c0.6,1.9,1.8,3.2,4,3.5
		c-0.9-4.8-0.8-6.9,0.2-10.6C129.9,141.2,130.9,140,130.8,138.4c0.1,0,0.1-0.1,0.2-0.1c0,0-0.1-0.1-0.1-0.1
		C130.8,138.3,130.8,138.3,130.8,138.4z M94.5,82.7c-0.9,3.2-2.7,5.9-4.5,8.6c-0.9,0.1-1.8,0.5-1.7,1.4c0.1,1,1.3,0.8,2,0.8
		c1.1,0,2.3-0.1,3.4-0.3c4.4-0.6,7.2-4.6,6.2-8.9c-0.4-1.6-1.5-2.4-3-2.5C96.1,81.7,94.7,80.8,94.5,82.7z M56,146.1
		c0.1,0,0.2,0,0.3,0.1c0-0.1-0.1-0.2-0.1-0.3c0.1-4,0.4-7.8,3.3-11c1.3-1.4-0.3-3.1-1.5-4.1c-1.3-1.1-2.3-0.1-2.8,1.2
		c-1.3,3-2.3,6-2,9.3C53.4,143.2,53.9,145.1,56,146.1z M121.3,148.3c0.1,0.7-0.7,1.7,0.7,2c0.5,0.1,1.2,0.5,1.6-0.1
		c0.3-0.5,0-1.1-0.2-1.7C122.8,147.1,122,148.8,121.3,148.3c2.2-3.7,1-7.3-0.6-10.8c-0.8-1.7-1.9-1.4-2.7,0.1
		c-1.2,2.4-1.9,4.9-1.7,7.6C116.6,148.2,118.4,149.3,121.3,148.3z M63.2,147.3c0,0.5-0.3,0.9-0.7,1.3c-0.3,0.3-0.8,0.6-0.3,1
		c0.3,0.3,0.9,0.4,1.3,0.5c0.5,0.1,0.8-0.3,0.7-0.8C64,148.5,64.8,147.3,63.2,147.3c0-0.3-0.1-0.6-0.1-0.9c0.7-3,0.8-5.9-1-8.6
		c-0.5-0.7-0.7-1.8-1.8-1.8c-1,0-1.3,1-1.6,1.7c-0.5,1.5-1,3-1.3,4.5c-0.4,2-0.3,4,1.3,5.5C60.4,149.3,61.7,147.5,63.2,147.3z
		 M64,125.5c0-4,0-7.9,0-11.9c0.1-0.5,0.3-1.1-0.3-1.5c-2.2-1-4.5-1.7-6.9-2.2c-1.9-0.9-2.1,0.1-1.9,1.6c0,5.6,0,11.2,0,16.9
		c0,0.5-0.3,1.7,0.7,1.2c3-1.8,3.9,0.4,4.7,2.4c1,2.3,2.1,4.5,3.7,7.1C64,134.2,64,129.9,64,125.5z M95.5,75.8
		c-0.2,2.3,1.7,1.3,2.6,1.4c5.2,0.5,7.9,2.6,8.3,6.9c0.3,4-0.9,7.4-3.8,10.3c-3.2,3.2-7.3,3.6-11.5,3.5c-4.1,0-4.1,0-5,3.9
		c-0.8,3.8-0.8,3.7-4.6,3.7c-2,0-2.2-0.8-1.9-2.5c0.5-2.2,0.9-4.4,1.3-6.6c0.3-1.6-0.5-1.5-1.5-0.8c-3.2,0.4-4.4,1.5-4.9,4.5
		c-0.1,1-0.2,1.9-1.5,1.8c-1.2-0.1-1.4-1.1-1.4-2c0-1.9,0.6-3.6,2-4.9c1.6-1.5,3.7-2.2,5.8-2.5c6.6-1,10.8-4.8,12-11.2
		c1.9-9.9,1.1-19.8-2.9-29.2c-0.8-1.9-1.7-3.8-3.6-4.9c-0.2-0.2-0.4-0.3-0.6-0.5l0.1,0c-2.9-2.9-6.4-3.4-10.2-2.9
		c-2.2,0.3-4.1,1.3-6,2.3c-4.4,2.3-8.6,4.9-12.7,7.6c-1.3,0.9-2.6,1.6-3.2-0.6c-0.3-1-1-0.6-1.6-0.6c-4.5,0.4-8.8,1.3-13.1,2.5
		c-11.4,3.2-17.6,10.5-18.4,22.4c-0.7,10.7-0.3,21.3-0.4,32c-0.1,1.1-0.2,2.1-0.2,3.2c0.1,11.1,0.2,22.2,0.3,33.3
		c0,4.4,1.6,6.2,6,6.6c1.4,0.1,2.9,0.1,4.3,0c2.9-0.3,5.1-2.7,5.4-5.6c0.5-5.2,0.8-10.4,1.3-15.6c0.5-5.4,0.6-10.9,2-16.2
		c1.6-5.8,5.6-9.2,11.4-9.2c3.7,0,6.1-1.7,8-4.5c1.6-2.4,2.4-5.1,3-7.8c0.5-2.5,1.2-5-2.4-5.7c-0.3-0.1-0.6-0.3-0.8-0.6
		c-0.6-0.6-1.6-1.1-0.9-2c0.8-1.1,1.4,0,2,0.4c2.4,1.8,4.2,1.6,6-0.6c0.5-0.6,0.9-2.1,1.9-1.3c1.2,0.9,0,1.9-0.6,2.7
		c-0.5,0.6-1.2,1.1-1.9,1.6c-0.6,0.4-0.9,0.8-1,1.6c-0.3,6.3-2.2,12-7,16.6c2.6,0.8,5,1.5,7.4,2.2c0.3,0.1,0.7,0,1-0.1
		c2.6-1.4,2.9-1.2,3,2c0.1,5.5,0.1,10.9,0.2,16.4c-0.3,3-0.2,6-0.1,9c0,0.6-0.1,1.1-0.1,1.7c0.1,0.7-0.4,1.8,0.6,2.1
		c0.8,0.3,1.3-0.4,1.9-0.9c0.3-0.3,0.5-0.6,0.8-0.9c0.4,0,0.9-0.1,1.3-0.1c1.8,0.2,2.1-1.6,3.1-2.4l1.3-0.5c2,0.5,3.2,1.9,4.1,3.7
		c0.5,0.9,0.9,2,1.7,2.7c4.2,3.8,5.4,8.3,3.9,13.6c-0.4,1.4,0,1.9,1.3,1.8c2.5-0.1,4.9-0.3,7.3-1.1c4.8-1.5,8.1-6,8.1-11
		c0-5.4,0-10.8,0.1-16.1c0-2.1,0-4.1,0.1-6.2c0-0.9,0.3-1.9,1.5-1.9c1,0,1.5,0.6,1.6,1.6c0,1.5,0.9,1.8,2.2,2c2.9,0.5,5.8,0.2,8.7,0
		c2.8-0.2,6.1,0.5,7.4-3.2c0-0.1,0.3-0.2,0.4-0.2c1.7,0.1,1.8,1.3,1.8,2.7c0,4.5,0,8.9,0.1,13.4c0,0.8-0.1,2.4,1.2,1.7
		c1.6-0.9,3.6-1.2,5-2.6c2.9-2.7,5.7-1.9,7.2,2c0.4,1,0.6,1.9,1.5,2.7c3.5,3.1,5.7,8.7,4.1,13.1c-0.8,2.1,0,2.5,1.6,2.3
		c2.2-0.2,4.5-0.4,6.6-1c5.5-1.3,8.2-4.8,8.2-10.5c0-11.6,0-23.2,0-34.8c0-1,0.2-2.1-0.2-2.9c-0.7-1.4-0.2-2.5,0.3-3.7
		c4.3-11.7,2.9-22.9-3.1-33.6c-0.2-0.6-0.5-1.2-1-1.5c-1.7-2.8-3.9-5.3-6.6-7.3c-4.1-3.2-8.5-5.9-13.5-7.4c-2.5-0.7-5-0.9-7.5-1.5
		c-5.5-1.2-10.9-1.3-16.4-0.8c-5.7,0.1-11.4,0.1-17.1,0.2c-5.1,0.1-5.1,0.1-3.1,4.9c1.2,5.7,2,11.5,2.1,17.4
		C95.6,74.1,95.5,75,95.5,75.8z M129.7,148.4c-0.1,1.6,0.2,3.2,1.1,4.5c1.1,1.8,2.6,3,4.8,2.9c0.9,0,1.5-0.2,0.9-1.3
		c-2.2-4.3-0.7-8.4,1.5-11.9c1.3-2.1,1.1-3.5,0-5.3c-1.5-2.4-3.9-2.2-5.3,0.2C130.8,140.8,129.9,144.5,129.7,148.4z M70.5,149.2
		c-0.1,1.4,0.1,2.8,0.8,4.1c1,2,2.5,3.5,5,3.5c1,0,1.6-0.2,1-1.4c-1.9-4.2-0.8-8.3,1.6-11.7c1.7-2.5,1-4-0.3-5.9
		c-1.6-2.2-3.1-2.2-4.6,0.2C71.7,141.3,70.9,145.2,70.5,149.2z M136.5,150.5c-0.1,3,1.6,5.3,3.9,5.4c2.3,0.1,4.3-2.2,4.1-5.2
		c-0.1-2.7-0.9-5.4-2.3-7.7c-1.2-1.9-2.3-1.9-3.5,0C137.3,145.3,136.7,147.8,136.5,150.5z M77.4,151.1c-0.1,3.2,1.4,5.5,3.7,5.7
		c2.3,0.2,4.2-1.6,4.3-4.4c0.1-3.1-0.8-6.1-2.4-8.7c-0.9-1.5-2.1-1.4-3.1,0.1C78.2,146,77.7,148.7,77.4,151.1z M115,146.5
		c0.2-0.2,0.3-0.3,0.3-0.4c0.3-4,0.4-8,3.7-10.9c0.7-0.6-0.7-3.9-1.8-4.5c-1.5-0.9-2.3,0.4-2.7,1.4c-1.4,3.4-2.6,7-1.9,10.8
		C112.7,144.3,113.4,145.6,115,146.5z M50.2,49.7c5.9,0.8,10.6-1.7,15.2-5.3C59.8,42.3,54.1,44.4,50.2,49.7z M122.5,137.8
		c0.4-0.1,0.4-0.1,0.7-0.3c0-3.2,0-6.4,0-9.6c0-0.7-0.3-1.4-1.1-1.4c-2.5,0.1-4.9,0.3-7.4,0.6c-1,0.1-0.9,1.2-0.9,2.1
		c0,0.5,0.2,0.6,0.8,0.6c3.4-0.1,4.2,0.4,5.3,3.7C120.6,135.3,121.4,136.6,122.5,137.8z M71.9,139c-4.8,1.6-7.6,10.1-4.8,13.8
		c0.4,0.5,1,0.9,1.5,1.2c0.4,0.2,1,0.3,1.4,0.1c0.6-0.3,0.1-0.9,0-1.3c-0.7-2.2-0.4-4.4-0.1-6.6C70.2,143.8,71.4,141.7,71.9,139z
		 M172,64.4c4.1,1.4,8.2,2,12.4,1.3c0.9-0.1,2.3-0.3,2.3-1.4c0-1.1-1.4-1.2-2.3-1.4C180.1,62.1,176,63,172,64.4z M175.5,68.4
		c1.8,1.8,3.7,2.7,6.1,2.4c0.7-0.1,1.3-0.4,1.3-1.2c0-0.8-0.7-0.7-1.3-0.8C179.5,68.7,177.5,68.6,175.5,68.4z M158.6,63.9
		c1.5,1.3,7.2,2,8.2,1.3c0.3-0.2,0.5-0.4,0.4-0.8c-0.1-0.5-0.6-0.6-1-0.6C163.9,63.8,161.6,63.9,158.6,63.9z M174.9,60.4
		c2.3-0.2,4-0.3,5.7-0.5c0.5-0.1,1.3,0.2,1.3-0.7c0-0.7-0.6-1-1.1-1.1C178.7,57.7,177,58.5,174.9,60.4z M16,110.4
		c0.2-9.7-0.5-21.6,0.5-33.5c1.1-14,8.2-22,21.9-24.8c4-0.8,7.5-2,10.3-5.2c1.2-1.3,2.8-2.4,4.2-3.4c4.3-3,9-3.7,13.9-1.6
		c1.6,0.7,3,0.8,4.7,0.1c6.3-2.4,12.8-0.6,17,4.5c1.1,1.4,2.3,1.8,4,1.8c10.1-0.2,20.2-0.7,30.3-0.3c12.1,0.4,23.2,3.6,32.2,12.1
		c0.8,0.8,1.7,0.9,2.8,0.9c1.7-0.1,3.5,0,5.3,0.1c4,0.2,7.9,0.1,10.9-3.5c1.4-1.7,3.8-2.3,6.1-2.3c2.5,0.1,4.4,0.9,4.9,3.7
		c0.2,1.1,0.9,1.4,1.8,1.8c1.6,0.6,3.1,1.5,3.2,3.4c0.1,1.9-1.3,2.9-2.9,3.7c-0.7,0.3-1,0.6-1.1,1.4c-0.6,3.6-3,5.2-6.7,4.5
		c-3-0.6-5.5-2.1-7.8-4.1c-1.3-1.1-7.3-2-8.7-1.3c-1.1,0.6-0.4,1.3-0.1,1.9c3.6,7.1,4.8,14.6,4.6,22.5c-0.1,2.9-0.6,5.7-1.6,8.4
		c-0.9,2.4-1,4.8-1,7.3c0.1,12,0.1,24,0.1,36c0,7.2-2.8,11.3-9.8,13c-9.6,2.4-19.2,2.8-28-3c-0.6-0.4-1.4-0.5-2.1-0.6
		c-4.3-0.8-8.5-1.5-11.6-7.6c-1.5-3-2.2-6.3-2.2-9.6c0-2.4-0.1-4.9,0-7.3c0.1-2.8-2-2.1-3.4-2.3c-1.9-0.3-2,0.9-1.9,2.3
		c0,5,0,9.9,0,14.9c0,8.8-2.9,12.7-11.6,14.7c-6.8,1.6-13.6,1.5-20.4-0.5c-1.3-0.4-2.7-0.7-3.6-1.6c-3-2.9-6.9-3.8-10.6-5.3
		c-5.2-2-7.6-6-7.6-11.6c0.1-9.4,0-18.9,0.1-28.3c0-2.1-0.7-2.8-2.7-2.6c-4.9,0.3-8.1,3.1-8.9,9c-1.1,8.1-1.6,16.3-2.5,24.5
		c-0.2,1.8-0.3,3.7-0.4,5.5c-0.2,4.7-3.5,7.1-8.8,7.7c-2.2,0.2-4.5,0.1-6.7-0.6c-4.2-1.3-5.9-3.8-5.9-8.4
		C16,135.3,16,123.9,16,110.4z"/>
</g>
</svg>
