<?xml version="1.0" encoding="utf-8"?>
<!-- Generator: Adobe Illustrator 23.0.3, SVG Export Plug-In . SVG Version: 6.00 Build 0)  -->
<svg version="1.1" id="Calque_1" xmlns="http://www.w3.org/2000/svg" xmlns:xlink="http://www.w3.org/1999/xlink" x="0px" y="0px"
	 viewBox="0 0 200 200" style="enable-background:new 0 0 200 200;" xml:space="preserve">
<style type="text/css">
	.st0{fill:#040404;}
	.st1{fill:#8B9AD4;}
	.st2{fill:#717EB9;}
	.st3{fill:#56639F;}
	.st4{fill:#E8ECF5;}
	.st5{fill:#8691BD;}
	.st6{fill:#37375D;}
	.st7{fill:#F7E018;}
	.st8{fill:#F0BE25;}
	.st9{fill:#FEC828;}
	.st10{fill:#3799D5;}
	.st11{fill:#001834;}
	.st12{fill:#00AAFF;}
	.st13{fill:#FD5622;}
	.st14{fill:#1D0802;}
	.st15{fill:#FB761A;}
	.st16{fill:#241208;}
	.st17{fill:#563E7C;}
	.st18{fill:#075062;}
	.st19{fill:#E77D07;}
	.st20{fill:#FEFEFE;}
</style>
<path class="st0" d="M-419.1-147c-47.8,0-85.9-38.2-86.3-85.9c-0.4-42,31.7-86.6,86.8-86.4c52.2,0.2,85.9,41.5,86,86.4
	C-332.6-185.4-371.4-147-419.1-147z M-417.2-251.1c-6.6-5.9-12.2-11.4-20.2-13c-8.9-1.7-18.2,2-22.6,9.2c-4.3,7.1-3.3,14.8,2.9,22.4
	c1.6,1.9,3.4,3.7,5.1,5.5c3.1,3.3,4.9,6.9,1.6,11.1c-3.3,4.1-7.6,4.3-12.1,2.7c-5.8-2-3.1-5.8-1.8-9.4c1-2.8,0.2-5.5-2.2-7.5
	c-2.1-1.8-4.6-2.1-7-0.7c-2.7,1.5-3.5,4.2-3.3,7.2c0.2,4.2,2.3,7.4,5.4,10c7.2,6.1,19.2,7.4,27.6,3c10.2-5.4,13-15.8,6.4-25.3
	c-2.5-3.7-5.8-6.7-8.5-10.3c-4-5.4-1.9-11.5,4.3-13.1c10.1-2.6,23.5,10.4,21.1,20.4c-1.5,6.5-2.7,13.1-4,19.7
	c-2.2,10.9-3.9,22-8.7,32.2c-2.7,5.7-6.4,10.5-12.9,12.4c-1.3,0.4-2.8,0.5-3.6-1c-0.6-1.3,0.3-2.1,1.1-2.8c3.8-3.3,3.5-6.8,0.1-10
	c-3.4-3.2-7.2-2.7-10.6,0.1c-3.6,3-4.8,6.9-2.3,11.2c2.8,5,7.4,6.5,12.7,6.5c9.9-0.2,17.5-5.1,24-12c11.1-11.8,16.1-26.5,19.1-42
	c0.9-4.7,0.8-9.8,3-13.8c2.7-4.9,8.6-1.1,12.9-2.5c6-2,11.7-4,13.8-10.8c0.8-2.5,0.1-5-2.1-6.8c-1.7-1.4-3.6-1.6-5.5-0.6
	c-2.1,1-3.6,2.7-3.5,5.2c0.1,8.1-2.9,10.7-11,9.9c-3-0.3-3.7-1.2-3.2-4.1c1.6-8.8,3-17.6,6.9-25.8c2.1-4.4,5-8.3,10.1-9.2
	c3.9-0.7,8.7-2,5.4,5.4c-2,4.5,0.1,7.8,4.9,8.5c4.7,0.7,7.5-1.9,8.1-6.4c0.8-5.7-2.8-8.9-7.6-10.4c-10.4-3.3-19.2,0.4-26.8,7.4
	C-408.3-271.6-413-262.1-417.2-251.1z"/>
<g>
	<path class="st1" d="M-139.9-90c-0.1-5.5-0.1-10.9-0.2-16.4c0-3.2-0.4-3.4-3.1-1.9c-0.2,0.1-0.6,0.2-0.9,0.1
		c-2.4-0.7-4.7-1.4-7.4-2.2c4.9-4.6,6.7-10.3,7-16.6c0-0.8,0.4-1.2,1-1.6c0.7-0.5,1.4-0.9,1.9-1.6c0.6-0.8,1.8-1.8,0.6-2.7
		c-1-0.8-1.4,0.7-1.9,1.3c-1.8,2.2-3.6,2.4-6,0.6c-0.6-0.5-1.2-1.5-2-0.4c-0.7,0.9,0.3,1.4,0.9,2c0.2,0.2,0.5,0.5,0.8,0.6
		c3.6,0.8,2.9,3.3,2.4,5.7c-0.6,2.8-1.4,5.4-3,7.8c-1.9,2.9-4.3,4.5-8,4.5c-5.8,0-9.9,3.4-11.4,9.2c-1.4,5.3-1.5,10.8-2,16.2
		c-0.5,5.2-0.8,10.4-1.3,15.6c-0.3,3.6-1.9,5.2-5.5,5.6c-1.4,0.2-2.8,0.2-4.2,0c-4.4-0.4-5.9-2.2-6-6.6c-0.1-11.1-0.2-22.2-0.3-33.3
		c0-1.1,0.1-2.1,0.2-3.2c1.9-0.1,2.5-1.1,2.5-2.9c0.2-7.7,0.5-15.4,1-23c0.4-7,2.4-13.5,8.3-18.1c5.4-4.3,11.8-6.1,18.5-7.2
		c0.6-0.1,1.1-0.1,1.6,0.5c1.2,1.6,2.4,0.8,3.7,0c3.3-2.2,6.5-4.5,9.9-6.6c6.2-3.9,12.7-6.7,20.3-5.2c0,0-0.1,0-0.1,0
		c0.2,0.2,0.4,0.3,0.6,0.5c2,1,2.8,3,3.6,4.9c4,9.4,4.8,19.2,2.9,29.2c-1.2,6.4-5.4,10.2-12,11.2c-2.2,0.3-4.2,1-5.8,2.5
		c-1.4,1.3-2,3-2,4.9c0,0.9,0.1,1.9,1.4,2c1.2,0.1,1.3-0.9,1.5-1.8c0.4-3,1.6-4.1,4.9-4.5c-0.2,2.1-0.6,4.2-1.2,6.3
		c-1,3.3,0,4.6,3.4,4.8c0.4,0,0.8,0.1,1.2,0.1c1,3.9-1.7,6.9-3.7,9.1c-2.8,3.1-4.3,6.9-6.8,10C-137.3-87.4-136.9-87.1-139.9-90z
		 M-163.6-131c0.4-0.2,0.7-0.4,1.1-0.6c0.3-0.2,0.6-0.5,0.8-0.7c0.1-0.2,0.3-0.3,0.4-0.5c3.5-3.7,2.6-6.1-3.3-8.5
		c0.3-1.3,2-1.4,2.2-2.8c-6-0.5-11.5,4.2-9.1,9.3c0.1,0.6,0.4,1.1,1,1.4c0.1,0.1,0.2,0.3,0.3,0.4
		C-168.5-130.3-166.6-129.8-163.6-131z M-162.3-150.4c0.6,0.1,1.3,0.2,1.5-0.5c0.2-0.7-0.6-0.9-1.1-1c-1-0.2-1.9-0.5-2.9-0.6
		c-4.4-0.4-8.6,0.1-11.9,3.5c-0.7,0.8-1.3,1.6-0.3,2.6c0.8,0.8,1.7,0.5,2.4-0.2C-171.3-150.4-167-151.2-162.3-150.4z"/>
	<path class="st2" d="M-49.3-149.3c0.5,0.4,0.8,0.9,1,1.5c-0.6,0.8-0.2,1.5,0.2,2.3c1.1,2.3,0.1,4.3-2.4,4.6
		c-0.7,0.1-1.1,0.3-1.4,0.8c-0.3-0.1-0.6-0.2-0.9-0.3c-0.4-0.6-1.1-0.8-1.8-0.8c-0.6,0.6-1.1,0.2-1.7,0c-1.3-0.7-2.6-0.6-4-0.1
		c-0.5,0-1.1,0-1.6,0c-2.6-0.4-5.2-0.5-7.8,0c-2,0.9-2.2,2.7-2.5,4.5c-1.5,7.3-2.9,14.7-4.5,22c-0.8,3.7-0.8,3.7,2.4,4.8
		c1.2,2.7-0.3,4.7-2.1,6.3c-2.4,2.2-3.6,5.3-6.3,7.3c-0.1,0.1-0.4,0.1-0.4,0.2c-1.3,3.7-4.5,3.1-7.4,3.2c-2.9,0.2-5.8,0.5-8.7,0
		c-1.3-0.2-2.2-0.5-2.2-2c0-1-0.6-1.6-1.6-1.6c-1.2,0-1.4,1-1.5,1.9c-0.1,2.1-0.1,4.1-0.1,6.2c0,5.4,0,10.8-0.1,16.1
		c0,6.7-1.9,9.2-8.3,11.1c-2.3,0.7-4.7,0.9-7.1,1c-1.3,0.1-1.7-0.4-1.3-1.8c1.5-5.3,0.3-9.9-3.9-13.6c-0.8-0.7-1.2-1.8-1.7-2.7
		c-0.9-1.7-15.7,2.4-17.7,1.9c0-1.3-3-16.8-2.5-18.2c1.8-6.1,6.4-10,10.5-14.3c1.9-2,4.2-3.7,5.2-6.5c0.7-1.7,1.8-2.9,3.6-3.5
		c1-0.3,2-0.9,1.6-2.1c-0.7-2.6,1.2-3.3,2.8-4.3c0.6-0.4,17.7,8.6,17.8,7.4c-0.7-1-18.1-7.4-18.6-9.3c3-1.1,5.1-3.4,7.2-5.8
		c0.4,1,7.3-18.2,7.2-17.5c-0.2,1.3,8.1,31.3,9.4,32.3c2.6,2-10-27.7-9.4-30.8c0.7-3.6,0.7,3.6,1.5,0c0.6-3.1,21.3,15.3,23,15.2
		c2.1,0,1.5,1.6,1.3,2.7c-0.4,2.5-0.9,5-1.4,7.6c-1.4,6.9-0.6,5.6,5.1,5.8c1.9,0,3-0.9,3.3-2.7c0.9-4.4,1.8-8.8,2.5-13.2
		c0.5-3.5-1.6-6.3-5.1-7.1c-1.9-0.4-19.6,1.7-21.5,1.9c-2.4,0.2-3.3-11.6-2.6-14c0.5-1.7,3.4-2.4,1.1-3.4c2.1-3.3,6.6-2.5,8.7-5.8
		c0.8-1.3,14.4,0.2,14.5-1.5c4.1,0.5,8.3,2.9,12.2,4.4c2.8,1.1,5.7,2.3,8.6,3.1c0.4,1,1.4,1.4,2.2,1.9
		C-53.8-152.6-52-150.3-49.3-149.3z"/>
	<path class="st3" d="M-82.6-96.4c2.7-1.9,3.9-5,6.3-7.3c1.8-1.6,3.2-3.6,2.1-6.3c1-0.1,2-0.1,3-0.1c2,0,3-1,3.5-2.8
		c1.1-4.7,1.2-4.6,5.8-4.8c0.5,0,1,0,1.5,0c4.5-0.2,8.1-2.1,10.7-5.8c4.2-5.7,3.2-13-2.2-16.5c0.3-0.5,0.8-0.7,1.4-0.8
		c2.5-0.3,3.6-2.2,2.4-4.6c-0.4-0.8-0.8-1.5-0.2-2.3c6,10.8,7.4,21.9,3.1,33.6c-0.5,1.2-1,2.3-0.3,3.7c0.4,0.8,0.2,2,0.2,2.9
		c0,11.6,0,23.2,0,34.8c0,5.7-2.7,9.2-8.2,10.5c-2.2,0.5-4.4,0.7-6.6,1c-1.6,0.2-2.3-0.2-1.7-2.1c1.5-4.4-0.3-10.3-3.9-13.2
		c-0.9-0.8-1.2-1.8-1.5-2.8c-1.5-3.8-4.3-4.7-7.2-2c-1.5,1.4-3.4,1.7-5,2.6c-1.3,0.7-1.2-0.9-1.2-1.7c-0.1-4.5-0.1-8.9-0.1-13.4
		C-80.8-95.1-80.9-96.3-82.6-96.4z"/>
	<path class="st4" d="M-122.4-170c-7.6-1.5-14.1,1.3-20.3,5.2c-3.3,2.1-6.6,4.4-9.9,6.6c-1.2,0.8-2.4,1.6-3.7,0
		c-0.4-0.6-1-0.6-1.6-0.5c-6.7,1.1-13.1,2.9-18.5,7.2c-5.8,4.6-7.8,11.1-8.3,18.1c-0.5,7.7-0.7,15.3-1,23c-0.1,1.8-0.6,2.8-2.5,2.9
		c0.1-10.7-0.3-21.3,0.4-32c0.8-11.9,7-19.2,18.4-22.4c4.3-1.2,8.7-2.1,13.1-2.5c0.6,0,1.3-0.5,1.6,0.6c0.7,2.2,1.9,1.4,3.2,0.6
		c4.1-2.7,8.3-5.3,12.7-7.6c1.9-1,3.8-2,6-2.3C-128.8-173.4-125.3-173-122.4-170z"/>
	<path class="st1" d="M-58.4-156c-2.9-0.8-5.8-2-8.6-3.1c-3.9-1.5-8-1.8-12.1-2.3c-4,0-7.9-0.1-11.9-0.1c-1.5,0-2.4,0.6-2.7,2.2
		c-0.4,1.9-0.8,4-2.3,5.4c-2.2,2-3.5,4.6-5.4,6.7c-1,1.2-2.7,2-3.2,3.3c-0.7,1.5-1.3,2.2-3,2.2c-1.7,0-3.2-0.1-3.8-2
		c-0.1-5.9-2.8-17-4-22.8c1.3-0.5,8.7-1.7,10.2-1.5c4.8,0.9,6.9-0.1,11.6,0c1.3,0,0.3,3.2,0.4,1.7c5.5-0.5,10.9-0.4,16.4,0.8
		c2.5,0.6,5,0.8,7.5,1.5c5.1,1.5,9.4,4.2,13.5,7.4C-56.5-155.1-57.5-156.2-58.4-156z"/>
	<path class="st4" d="M-108.1-118.5c-2.7,0.7-5.4,1-8.1,0.8c-2.4-0.2-2.9,1.1-3.2,3c-0.7,3.9-1.1,4.3-4.5,4.7
		c-0.4,0-0.8-0.1-1.2-0.1c-3.4-0.2-4.4-1.5-3.4-4.8c0.6-2.1,1-4.2,1.2-6.3c1-0.6,1.8-0.8,1.5,0.8c-0.4,2.2-0.8,4.4-1.3,6.6
		c-0.4,1.6-0.1,2.5,1.9,2.5c3.8,0,3.8,0.1,4.6-3.7c0.8-3.9,0.8-3.9,5-3.9c4.2,0,8.2-0.3,11.5-3.5c2.9-2.9,4.1-6.3,3.8-10.3
		c-0.3-4.2-3.1-6.4-8.3-6.9c-0.9-0.1-2.8,0.9-2.6-1.4c4.7,0.1,9.4,0.3,11.7,5.6c0.2,0.4,0.4,0.7,0.9,0.6c0.4-0.1,0.6-0.5,0.7-0.9
		c0.4-2,0.8-4.1,1.2-6.1c1.3-6.8,1.3-6.8,8.2-6.8c2.3,1.1,1.8,3,1.3,4.7c-0.7,2.3,0.1,3.1,2.4,2.9c1.9-0.2,3.8,0.1,5.7,0.5
		c3.5,0.8,5.6,3.6,5.1,7.1c-0.7,4.4-1.6,8.8-2.5,13.2c-0.4,1.7-1.4,2.7-3.3,2.7c-5.6-0.1-6.5,1.2-5.1-5.8c0.5-2.5,1-5,1.4-7.6
		c0.2-1.1,0.8-2.8-1.3-2.7c-1.7,0-4.2-1.3-4.8,1.8c-0.7,3.6-1.4,7.1-2.1,10.7c-0.6,3.1-5.7,5-8.2,3.1c-1.3-1-0.9-2.4-0.7-3.7
		c0.1-0.7,0.5-1.4,0.1-2.4C-103-121.9-105.1-119.6-108.1-118.5z M-87-135.3c4.9,0,5.2,0.3,4.4,5.1c-0.5,2.8-1.1,5.7-1.6,8.5
		c-0.2,0.9-1.1,2.4,0.7,2.5c1.7,0.1,4.5,1.2,5.1-1.1c1.2-4.7,2.5-9.5,2.6-14.4c0.1-2.6-1.3-4-3.9-4.7c-1.7-0.5-3.4-0.4-5.2-0.5
		c-4.9-0.2-4.9-0.2-4-4.9c0.1-0.8,0.6-1.7-0.1-2.4c-1.2-1.3-5.6-0.1-6,1.7c-1.6,8.1-3.2,16.2-4.7,24.3c-0.1,0.6-0.4,1.3,0.3,1.8
		c1.6,1.3,5.5-0.1,5.9-2.1c0.7-3.4,1.3-6.8,2-10.2C-90.7-135.3-90.6-135.3-87-135.3z"/>
	<path class="st1" d="M-143-103.4c0,4,0,7.9,0,11.9c-2.7,1.9-5.7,3.1-9.1,3c0-5.6,0-11.2,0-16.9c0.9-0.2,1.5-0.9,1.9-1.6
		c2.4,0.4,4.7,1.2,6.9,2.2C-143.6-104.3-143.8-103.8-143-103.4z"/>
	<path class="st1" d="M-77.3-68.6c0.2-3.9,1.2-7.7,3.2-11.1c1.7-2.8,3.5-2.7,5.2,0c1.1,1.8,1.3,3.1,0,5.3c-2.3,3.6-3.7,7.6-1.5,11.9
		c0.6,1.1,0,1.3-0.9,1.3c-2.3,0.1-3.7-1.2-4.8-2.9C-77.1-65.5-77.4-67-77.3-68.6z"/>
	<path class="st1" d="M-136.5-67.8c0.4-4,1.2-7.8,3.4-11.2c1.5-2.3,3-2.4,4.6-0.2c1.3,1.9,2,3.4,0.3,5.9c-2.4,3.4-3.5,7.5-1.6,11.7
		c0.6,1.3-0.1,1.4-1,1.4c-2.5,0-3.9-1.5-5-3.5C-136.3-65-136.5-66.4-136.5-67.8z"/>
	<path class="st1" d="M-70.5-66.5c0.2-2.7,0.8-5.2,2.3-7.5c1.2-1.9,2.3-1.9,3.5,0c1.4,2.4,2.2,5,2.3,7.7c0.1,2.9-1.8,5.2-4.1,5.2
		C-68.9-61.2-70.6-63.5-70.5-66.5z"/>
	<path class="st1" d="M-129.6-65.9c0.3-2.4,0.8-5.1,2.4-7.4c1-1.5,2.2-1.5,3.1-0.1c1.7,2.6,2.6,5.6,2.4,8.7c-0.1,2.8-2,4.6-4.3,4.4
		C-128.2-60.4-129.7-62.6-129.6-65.9z"/>
	<path class="st1" d="M-143.8-69.7c-1.5,0.2-2.8,2-4.5,0.4c-1.6-1.6-1.7-3.5-1.3-5.5c0.3-1.5,0.8-3,1.3-4.5c0.3-0.7,0.6-1.7,1.6-1.7
		c1.1,0,1.3,1.1,1.8,1.8c1.8,2.7,1.7,5.6,1,8.6C-144-70.3-143.9-70-143.8-69.7L-143.8-69.7z"/>
	<path class="st2" d="M-92-70.5c-1.6-0.8-2.3-2.2-2.5-3.7C-95.1-78-94-81.5-92.6-85c0.4-0.9,1.2-2.2,2.7-1.4
		c1.1,0.6,2.5,3.9,1.8,4.5c-3.3,3-3.4,7-3.7,10.9C-91.7-70.8-91.8-70.8-92-70.5z"/>
	<path class="st2" d="M-85.7-68.7c-2.9,0.9-4.7-0.2-4.9-3.1c-0.2-2.7,0.4-5.3,1.7-7.6c0.8-1.5,1.9-1.8,2.7-0.1
		C-84.6-76-83.5-72.4-85.7-68.7L-85.7-68.7z"/>
	<path class="st1" d="M-151-70.9c-2.2-0.9-2.6-2.8-2.8-4.8c-0.2-3.3,0.8-6.3,2-9.3c0.5-1.3,1.5-2.3,2.8-1.2c1.2,1,2.8,2.7,1.5,4.1
		c-2.9,3.2-3.3,7-3.3,11C-150.8-71.1-150.9-71-151-70.9z"/>
	<path class="st1" d="M-156.8-167.3c3.8-5.2,9.6-7.3,15.2-5.3C-146.2-169.1-150.8-166.5-156.8-167.3z"/>
	<path class="st3" d="M-84.6-79.2c-1.1-1.2-1.9-2.5-2.4-4.1c-1.1-3.3-1.9-3.8-5.3-3.7c-0.6,0-0.8-0.2-0.8-0.6c0-0.8-0.2-1.9,0.9-2.1
		c2.4-0.3,4.9-0.5,7.4-0.6c0.8,0,1.1,0.7,1.1,1.4c0,3.2,0,6.5,0,9.7C-84-79.2-84.3-79.2-84.6-79.2z"/>
	<path class="st5" d="M-117-125.7c1.8-2.7,3.6-5.4,4.5-8.6c1.5,0.7,4-0.2,4.1,2.6c0.1,1.5-0.3,3-1,4.3
		C-110.6-125.2-115.2-124.2-117-125.7z"/>
	<path class="st1" d="M-135.1-78c-0.6,2.6-1.8,4.8-2.1,7.2c-0.3,2.2-0.5,4.4,0.1,6.6c0.1,0.4,0.6,1,0,1.3c-0.4,0.2-1,0.1-1.4-0.1
		c-0.6-0.3-1.1-0.7-1.5-1.2C-142.6-67.9-139.8-76.4-135.1-78z"/>
	<path class="st5" d="M-152.1-88.6c3.4,0.1,6.4-1,9.1-3c0,4.4,0,8.8,0,13.7c-1.6-2.6-2.8-4.8-3.7-7.1c-0.8-2-1.7-4.1-4.7-2.4
		C-152.4-86.8-152.1-88-152.1-88.6z"/>
	<path class="st1" d="M-76.2-78.6c0.1,1.6-0.8,2.8-1.2,4.2c-1,3.6-1.1,5.8-0.2,10.6c-2.2-0.3-3.4-1.7-4-3.5
		c-0.9-2.8,1.3-9.1,3.6-10.8C-77.5-78.6-77-79-76.2-78.6L-76.2-78.6z"/>
	<path class="st1" d="M-35-152.6c4-1.4,8.1-2.3,12.4-1.5c0.9,0.2,2.3,0.4,2.3,1.4c0,1.1-1.4,1.3-2.3,1.4
		C-26.9-150.6-31-151.2-35-152.6z"/>
	<path class="st4" d="M-117-125.7c1.8,1.5,6.4,0.5,7.6-1.7c0.7-1.3,1-2.8,1-4.3c-0.1-2.8-2.6-1.9-4.1-2.6c0.2-1.9,1.6-1,2.4-0.9
		c1.5,0.1,2.6,0.9,3,2.5c1,4.3-1.8,8.3-6.2,8.9c-1.1,0.1-2.3,0.2-3.4,0.3c-0.8,0-1.9,0.3-2-0.8C-118.8-125.2-117.9-125.6-117-125.7z
		"/>
	<path class="st5" d="M-58.4-156c0.8-0.1,1.9,1,2.5-0.5c2.7,2,4.8,4.4,6.6,7.3c-2.7-1.1-4.5-3.4-6.8-4.9
		C-56.9-154.6-58-155-58.4-156z"/>
	<path class="st1" d="M-31.5-148.6c2,0.1,4.1,0.3,6.1,0.4c0.5,0,1.3-0.1,1.3,0.8c0,0.8-0.6,1.1-1.3,1.2
		C-27.8-145.9-29.8-146.7-31.5-148.6z"/>
	<path class="st3" d="M-48.4-153.1c3,0,5.3,0,7.7,0c0.4,0,0.8,0.1,1,0.6c0.1,0.4-0.1,0.6-0.4,0.8C-41.2-151.2-46.9-151.8-48.4-153.1
		z"/>
	<path class="st5" d="M-32.1-156.6c2.1-1.9,3.8-2.7,5.9-2.3c0.6,0.1,1.2,0.4,1.1,1.1c0,0.9-0.8,0.7-1.3,0.7
		C-28.1-156.9-29.8-156.8-32.1-156.6z"/>
	<path class="st2" d="M-139.9-81.1c1.3,0.4,1.6,2.3,3.3,2.1c-0.3,0.3-0.5,0.6-0.8,0.9c-0.5,0.5-1.1,1.2-1.9,0.9
		c-1-0.4-0.6-1.4-0.6-2.1C-140-79.9-140-80.5-139.9-81.1z"/>
	<path class="st3" d="M-85.7-68.7c0.7,0.4,1.5-1.2,2.1,0.2c0.2,0.5,0.5,1.1,0.2,1.7c-0.4,0.6-1,0.2-1.6,0.1
		C-86.4-67-85.5-68-85.7-68.7C-85.7-68.7-85.7-68.7-85.7-68.7z"/>
	<path class="st2" d="M-143.8-69.7c1.6-0.1,0.9,1.2,1,1.9c0.1,0.4-0.2,0.8-0.7,0.8c-0.5-0.1-1-0.2-1.3-0.5c-0.4-0.4,0.1-0.7,0.3-1
		C-144.1-68.8-143.8-69.2-143.8-69.7C-143.8-69.7-143.8-69.7-143.8-69.7z"/>
	<path class="st2" d="M-135.4-79.1c0.1-2,1.5-2.4,3.1-2.4C-133.3-80.7-133.6-79-135.4-79.1z"/>
	<path class="st5" d="M-150.2-107.1c-0.4,0.8-1,1.4-1.9,1.6C-152.4-107-152.1-108-150.2-107.1z"/>
	<path class="st5" d="M-143-103.4c-0.8-0.3-0.6-0.9-0.3-1.5C-142.7-104.5-142.9-104-143-103.4z"/>
	<path class="st4" d="M-121.9-169.6c-0.2-0.2-0.4-0.3-0.6-0.5C-122.3-169.9-122.1-169.8-121.9-169.6z"/>
	<path class="st1" d="M-76.2-78.6c0-0.1,0-0.1,0-0.2c0,0,0.1,0.1,0.1,0.1C-76.1-78.7-76.2-78.6-76.2-78.6
		C-76.2-78.6-76.2-78.6-76.2-78.6z"/>
	<path class="st1" d="M-150.7-71.2c0,0.1,0.1,0.2,0.1,0.3c-0.1,0-0.2,0-0.3-0.1C-150.9-71-150.8-71.1-150.7-71.2z"/>
	<path class="st6" d="M-170.3-133c-0.1-0.1-0.2-0.3-0.3-0.4c-0.1-0.6-0.5-1.1-1-1.4c-2.4-5,3.2-9.8,9.1-9.3
		c-0.2,1.3-1.9,1.5-2.2,2.8c5.9,2.4,6.8,4.8,3.3,8.5c-0.1,0.2-0.3,0.3-0.4,0.5c-0.3,0.2-0.6,0.5-0.8,0.7c-0.2-0.2-0.3-0.3-0.5-0.5
		c-0.1-0.2-0.2-0.5-0.3-0.5c-1.4-0.6-3.7-0.6-1.5-3c0.3-0.3-0.1-0.5-0.3-0.7c-0.4-0.3-1.3-0.4-0.7-1.2c0.4-0.7,1.1-1,1.9-0.9
		c0.5,0,1.2,0.6,1.3-0.3c0.1-0.8-0.7-0.7-1.3-0.8c-2.2-0.4-4.5,1.1-5.9,3.8c-0.4,0.4-0.4,0.7-0.1,1.1c0.1,0.4,0.2,0.7,0.3,1.1
		C-169.8-133.4-170-133.2-170.3-133z"/>
	<path class="st6" d="M-162.3-150.4c-4.8-0.8-9,0.1-12.4,3.8c-0.7,0.7-1.6,1-2.4,0.2c-1-0.9-0.4-1.8,0.3-2.6
		c3.3-3.4,7.5-3.9,11.9-3.5c1,0.1,2,0.3,2.9,0.6c0.5,0.1,1.3,0.3,1.1,1C-160.9-150.2-161.7-150.3-162.3-150.4z"/>
	<path class="st3" d="M-163.6-131c-3,1.3-4.8,0.7-6.6-1.9c0.2-0.2,0.4-0.4,0.7-0.6c1.5,1.4,3.1,2.5,5.3,2
		C-164.1-131.4-163.9-131.2-163.6-131z"/>
	<path class="st3" d="M-171.5-134.8c0.5,0.4,0.8,0.8,1,1.4C-171.1-133.7-171.5-134.1-171.5-134.8z"/>
	<path class="st6" d="M-162.5-131.6c-0.4,0.2-0.7,0.4-1.1,0.6c-0.2-0.2-0.4-0.4-0.7-0.5c0.4-0.2,0.9-0.4,1.3-0.5
		C-162.9-131.9-162.7-131.8-162.5-131.6z"/>
	<path class="st3" d="M-161.7-132.3c0.1-0.2,0.3-0.3,0.4-0.5C-161.5-132.7-161.6-132.5-161.7-132.3z"/>
	<path class="st4" d="M-52-140.1c5.4,3.5,6.3,10.8,2.2,16.5c-2.6,3.6-6.2,5.6-10.7,5.8c-0.5,0-1,0-1.5,0c-4.7,0.1-4.7,0.1-5.8,4.8
		c-0.5,1.9-1.5,2.8-3.5,2.8c-1,0-2,0.1-3,0.1c-3.3-1.1-3.2-1.1-2.4-4.8c1.5-7.3,3-14.7,4.5-22c0.4-1.8,0.6-3.6,2.5-4.5
		c2.6,0,5.2,0,7.8,0c0.5,0,1.1,0,1.6,0c1.3,0,2.6,0.1,4,0.1c0.6,0.2,1.1,0.6,1.7,0c0.5,0.6,1.1,0.6,1.8,0.8
		C-52.6-140.3-52.3-140.2-52-140.1z M-61.8-139.9c-2.6,0-4.6,0-6.6,0c-1.1,0-1.9,0.4-2.1,1.6c-1.6,8.3-3.3,16.7-4.9,25
		c-0.2,1,0.1,1.5,1.2,1.7c3.7,0.7,4.7,0,5.4-3.6c0.1-0.6,0.3-1.1,0.3-1.7c0.1-1.8,1.2-2.3,2.8-2.3c2,0,4,0,5.9-0.2
		c6.4-0.6,11-5.7,11.2-12.1c0.1-4.1-2-6.9-6-7.9C-57.2-140-59.8-139.8-61.8-139.9z"/>
	<path class="st3" d="M-61.9-141.4c-2.6,0-5.2,0-7.8,0C-67.1-141.9-64.5-141.8-61.9-141.4z"/>
	<path class="st3" d="M-56.3-141.2c-1.3,0-2.6-0.1-4-0.1C-58.9-141.8-57.6-141.9-56.3-141.2z"/>
	<path class="st3" d="M-52.9-140.4c-0.6-0.1-1.3-0.2-1.8-0.8C-53.9-141.2-53.3-141-52.9-140.4z"/>
	<path class="st6" d="M-87-135.3c-3.7,0-3.7,0-4.4,3.6c-0.7,3.4-1.3,6.8-2,10.2c-0.4,2.1-4.3,3.4-5.9,2.1c-0.7-0.5-0.4-1.2-0.3-1.8
		c1.6-8.1,3.1-16.2,4.7-24.3c0.4-1.8,4.7-3,6-1.7c0.6,0.7,0.2,1.6,0.1,2.4c-0.9,4.8-0.9,4.7,4,4.9c1.7,0.1,3.5,0,5.2,0.5
		c2.6,0.7,4,2.1,3.9,4.7c-0.2,4.9-1.4,9.7-2.6,14.4c-0.6,2.3-3.3,1.2-5.1,1.1c-1.8-0.1-0.9-1.6-0.7-2.5c0.5-2.8,1.1-5.7,1.6-8.5
		C-81.7-135-82-135.3-87-135.3z"/>
	<path class="st4" d="M-163-132.1c-0.4,0.2-0.9,0.4-1.3,0.5c-2.2,0.5-3.8-0.6-5.3-2c-0.1-0.4-0.2-0.7-0.3-1.1
		c0.6-0.4,0.6-0.7,0.1-1.1c1.5-2.7,3.7-4.2,5.9-3.8c0.5,0.1,1.3,0.1,1.3,0.8c-0.1,1-0.7,0.4-1.3,0.3c-0.8-0.1-1.5,0.2-1.9,0.9
		c-0.5,0.8,0.4,0.9,0.7,1.2c0.3,0.2,0.6,0.4,0.3,0.7c-2.2,2.4,0.1,2.4,1.5,3C-163.2-132.6-163.1-132.3-163-132.1z"/>
	<path class="st3" d="M-169.9-135.8c0.6,0.4,0.6,0.8-0.1,1.1C-170.3-135.1-170.3-135.5-169.9-135.8z"/>
	<path class="st6" d="M-61.8-139.9c2,0,4.7-0.1,7.3,0.5c4,1,6.1,3.8,6,7.9c-0.2,6.4-4.8,11.5-11.2,12.1c-2,0.2-4,0.3-5.9,0.2
		c-1.7,0-2.7,0.5-2.8,2.3c0,0.6-0.2,1.1-0.3,1.7c-0.7,3.6-1.8,4.3-5.4,3.6c-1.1-0.2-1.4-0.7-1.2-1.7c1.6-8.3,3.3-16.7,4.9-25
		c0.2-1.2,1-1.6,2.1-1.6C-66.4-139.9-64.5-139.9-61.8-139.9z M-61.2-135.5c-1.2,0.5-3.4-0.9-4,1.5c-0.7,2.9-1.2,5.8-1.7,8.8
		c-0.2,0.8,0,1.4,1,1.7c5.3,1.5,10.2-1.8,10.8-7.2c0.3-2.8-0.8-4.2-3.6-4.5C-59.5-135.4-60.2-135.4-61.2-135.5z"/>
	<path class="st4" d="M-61.2-135.5c1,0.1,1.7,0.1,2.5,0.2c2.8,0.3,3.9,1.7,3.6,4.5c-0.6,5.4-5.4,8.7-10.8,7.2c-1-0.3-1.1-0.9-1-1.7
		c0.5-2.9,1-5.9,1.7-8.8C-64.6-136.4-62.4-135-61.2-135.5z M-60.8-134.2c-2.5-0.6-3.4,0.7-3.5,2.9c0,0.7-0.3,1.3-0.4,1.9
		c-1,4.9-0.4,5.4,4.5,4c0.1,0,0.2,0,0.2-0.1c2.2-0.7,4-3.8,3.5-6.4C-56.8-134.6-59.2-133.8-60.8-134.2z"/>
	<path class="st2" d="M-60.8-134.2c1.6,0.4,4-0.4,4.4,2.3c0.4,2.6-1.4,5.7-3.5,6.4c-0.1,0-0.2,0-0.2,0.1c-4.9,1.4-5.5,0.9-4.5-4
		c0.1-0.6,0.3-1.3,0.4-1.9C-64.2-133.5-63.3-134.8-60.8-134.2z"/>
	<path class="st6" d="M-76.2-78.6c-0.7-0.4-1.3,0.1-1.8,0.4c-2.4,1.8-4.5,8-3.6,10.8c0.6,1.9,1.8,3.2,4,3.5
		c-0.9-4.8-0.8-6.9,0.2-10.6C-77.1-75.8-76.1-77-76.2-78.6c0.1,0,0.1-0.1,0.2-0.1c0,0-0.1-0.1-0.1-0.1
		C-76.2-78.7-76.2-78.7-76.2-78.6z M-112.5-134.3c-0.9,3.2-2.7,5.9-4.5,8.6c-0.9,0.1-1.8,0.5-1.7,1.4c0.1,1,1.3,0.8,2,0.8
		c1.1,0,2.3-0.1,3.4-0.3c4.4-0.6,7.2-4.6,6.2-8.9c-0.4-1.6-1.5-2.4-3-2.5C-110.9-135.3-112.3-136.2-112.5-134.3z M-151-70.9
		c0.1,0,0.2,0,0.3,0.1c0-0.1-0.1-0.2-0.1-0.3c0.1-4,0.4-7.8,3.3-11c1.3-1.4-0.3-3.1-1.5-4.1c-1.3-1.1-2.3-0.1-2.8,1.2
		c-1.3,3-2.3,6-2,9.3C-153.6-73.8-153.1-71.9-151-70.9z M-85.7-68.7c0.1,0.7-0.7,1.7,0.7,2c0.5,0.1,1.2,0.5,1.6-0.1
		c0.3-0.5,0-1.1-0.2-1.7C-84.2-69.9-85-68.2-85.7-68.7c2.2-3.7,1-7.3-0.6-10.8c-0.8-1.7-1.9-1.4-2.7,0.1c-1.2,2.4-1.9,4.9-1.7,7.6
		C-90.4-68.8-88.6-67.7-85.7-68.7z M-143.8-69.7c0,0.5-0.3,0.9-0.7,1.3c-0.3,0.3-0.8,0.6-0.3,1c0.3,0.3,0.9,0.4,1.3,0.5
		c0.5,0.1,0.8-0.3,0.7-0.8C-143-68.5-142.2-69.7-143.8-69.7c0-0.3-0.1-0.6-0.1-0.9c0.7-3,0.8-5.9-1-8.6c-0.5-0.7-0.7-1.8-1.8-1.8
		c-1,0-1.3,1-1.6,1.7c-0.5,1.5-1,3-1.3,4.5c-0.4,2-0.3,4,1.3,5.5C-146.6-67.7-145.3-69.5-143.8-69.7z M-143-91.5c0-4,0-7.9,0-11.9
		c0.1-0.5,0.3-1.1-0.3-1.5c-2.2-1-4.5-1.7-6.9-2.2c-1.9-0.9-2.1,0.1-1.9,1.6c0,5.6,0,11.2,0,16.9c0,0.5-0.3,1.7,0.7,1.2
		c3-1.8,3.9,0.4,4.7,2.4c1,2.3,2.1,4.5,3.7,7.1C-143-82.8-143-87.1-143-91.5z M-111.5-141.2c-0.2,2.3,1.7,1.3,2.6,1.4
		c5.2,0.5,7.9,2.6,8.3,6.9c0.3,4-0.9,7.4-3.8,10.3c-3.2,3.2-7.3,3.6-11.5,3.5c-4.1,0-4.1,0-5,3.9c-0.8,3.8-0.8,3.7-4.6,3.7
		c-2,0-2.2-0.8-1.9-2.5c0.5-2.2,0.9-4.4,1.3-6.6c0.3-1.6-0.5-1.5-1.5-0.8c-3.2,0.4-4.4,1.5-4.9,4.5c-0.1,1-0.2,1.9-1.5,1.8
		c-1.2-0.1-1.4-1.1-1.4-2c0-1.9,0.6-3.6,2-4.9c1.6-1.5,3.7-2.2,5.8-2.5c6.6-1,10.8-4.8,12-11.2c1.9-9.9,1.1-19.8-2.9-29.2
		c-0.8-1.9-1.7-3.8-3.6-4.9c-0.2-0.2-0.4-0.3-0.6-0.5l0.1,0c-2.9-2.9-6.4-3.4-10.2-2.9c-2.2,0.3-4.1,1.3-6,2.3
		c-4.4,2.3-8.6,4.9-12.7,7.6c-1.3,0.9-2.6,1.6-3.2-0.6c-0.3-1-1-0.6-1.6-0.6c-4.5,0.4-8.8,1.3-13.1,2.5
		c-11.4,3.2-17.6,10.5-18.4,22.4c-0.7,10.7-0.3,21.3-0.4,32c-0.1,1.1-0.2,2.1-0.2,3.2c0.1,11.1,0.2,22.2,0.3,33.3
		c0,4.4,1.6,6.2,6,6.6c1.4,0.1,2.9,0.1,4.3,0c2.9-0.3,5.1-2.7,5.4-5.6c0.5-5.2,0.8-10.4,1.3-15.6c0.5-5.4,0.6-10.9,2-16.2
		c1.6-5.8,5.6-9.2,11.4-9.2c3.7,0,6.1-1.7,8-4.5c1.6-2.4,2.4-5.1,3-7.8c0.5-2.5,1.2-5-2.4-5.7c-0.3-0.1-0.6-0.3-0.8-0.6
		c-0.6-0.6-1.6-1.1-0.9-2c0.8-1.1,1.4,0,2,0.4c2.4,1.8,4.2,1.6,6-0.6c0.5-0.6,0.9-2.1,1.9-1.3c1.2,0.9,0,1.9-0.6,2.7
		c-0.5,0.6-1.2,1.1-1.9,1.6c-0.6,0.4-0.9,0.8-1,1.6c-0.3,6.3-2.2,12-7,16.6c2.6,0.8,5,1.5,7.4,2.2c0.3,0.1,0.7,0,1-0.1
		c2.6-1.4,2.9-1.2,3,2c0.1,5.5,0.1,10.9,0.2,16.4c-0.3,3-0.2,6-0.1,9c0,0.6-0.1,1.1-0.1,1.7c0.1,0.7-0.4,1.8,0.6,2.1
		c0.8,0.3,1.3-0.4,1.9-0.9c0.3-0.3,0.5-0.6,0.8-0.9c0.4,0,0.9-0.1,1.3-0.1c1.8,0.2,2.1-1.6,3.1-2.4l1.3-0.5c2,0.5,3.2,1.9,4.1,3.7
		c0.5,0.9,0.9,2,1.7,2.7c4.2,3.8,5.4,8.3,3.9,13.6c-0.4,1.4,0,1.9,1.3,1.8c2.5-0.1,4.9-0.3,7.3-1.1c4.8-1.5,8.1-6,8.1-11
		c0-5.4,0-10.8,0.1-16.1c0-2.1,0-4.1,0.1-6.2c0-0.9,0.3-1.9,1.5-1.9c1,0,1.5,0.6,1.6,1.6c0,1.5,0.9,1.8,2.2,2c2.9,0.5,5.8,0.2,8.7,0
		c2.8-0.2,6.1,0.5,7.4-3.2c0-0.1,0.3-0.2,0.4-0.2c1.7,0.1,1.8,1.3,1.8,2.7c0,4.5,0,8.9,0.1,13.4c0,0.8-0.1,2.4,1.2,1.7
		c1.6-0.9,3.6-1.2,5-2.6c2.9-2.7,5.7-1.9,7.2,2c0.4,1,0.6,1.9,1.5,2.7c3.5,3.1,5.7,8.7,4.1,13.1c-0.8,2.1,0,2.5,1.6,2.3
		c2.2-0.2,4.5-0.4,6.6-1c5.5-1.3,8.2-4.8,8.2-10.5c0-11.6,0-23.2,0-34.8c0-1,0.2-2.1-0.2-2.9c-0.7-1.4-0.2-2.5,0.3-3.7
		c4.3-11.7,2.9-22.9-3.1-33.6c-0.2-0.6-0.5-1.2-1-1.5c-1.7-2.8-3.9-5.3-6.6-7.3c-4.1-3.2-8.5-5.9-13.5-7.4c-2.5-0.7-5-0.9-7.5-1.5
		c-5.5-1.2-10.9-1.3-16.4-0.8c-5.7,0.1-11.4,0.1-17.1,0.2c-5.1,0.1-5.1,0.1-3.1,4.9c1.2,5.7,2,11.5,2.1,17.4
		C-111.4-142.9-111.5-142-111.5-141.2z M-77.3-68.6c-0.1,1.6,0.2,3.2,1.1,4.5c1.1,1.8,2.6,3,4.8,2.9c0.9,0,1.5-0.2,0.9-1.3
		c-2.2-4.3-0.7-8.4,1.5-11.9c1.3-2.1,1.1-3.5,0-5.3c-1.5-2.4-3.9-2.2-5.3,0.2C-76.2-76.2-77.1-72.5-77.3-68.6z M-136.5-67.8
		c-0.1,1.4,0.1,2.8,0.8,4.1c1,2,2.5,3.5,5,3.5c1,0,1.6-0.2,1-1.4c-1.9-4.2-0.8-8.3,1.6-11.7c1.7-2.5,1-4-0.3-5.9
		c-1.6-2.2-3.1-2.2-4.6,0.2C-135.3-75.7-136.1-71.8-136.5-67.8z M-70.5-66.5c-0.1,3,1.6,5.3,3.9,5.4c2.3,0.1,4.3-2.2,4.1-5.2
		c-0.1-2.7-0.9-5.4-2.3-7.7c-1.2-1.9-2.3-1.9-3.5,0C-69.7-71.7-70.3-69.2-70.5-66.5z M-129.6-65.9c-0.1,3.2,1.4,5.5,3.7,5.7
		c2.3,0.2,4.2-1.6,4.3-4.4c0.1-3.1-0.8-6.1-2.4-8.7c-0.9-1.5-2.1-1.4-3.1,0.1C-128.8-71-129.3-68.3-129.6-65.9z M-92-70.5
		c0.2-0.2,0.3-0.3,0.3-0.4c0.3-4,0.4-8,3.7-10.9c0.7-0.6-0.7-3.9-1.8-4.5c-1.5-0.9-2.3,0.4-2.7,1.4c-1.4,3.4-2.6,7-1.9,10.8
		C-94.3-72.7-93.6-71.4-92-70.5z M-156.8-167.3c5.9,0.8,10.6-1.7,15.2-5.3C-147.2-174.7-152.9-172.6-156.8-167.3z M-84.5-79.2
		c0.4-0.1,0.4-0.1,0.7-0.3c0-3.2,0-6.4,0-9.6c0-0.7-0.3-1.4-1.1-1.4c-2.5,0.1-4.9,0.3-7.4,0.6c-1,0.1-0.9,1.2-0.9,2.1
		c0,0.5,0.2,0.6,0.8,0.6c3.4-0.1,4.2,0.4,5.3,3.7C-86.4-81.7-85.6-80.4-84.5-79.2z M-135.1-78c-4.8,1.6-7.6,10.1-4.8,13.8
		c0.4,0.5,1,0.9,1.5,1.2c0.4,0.2,1,0.3,1.4,0.1c0.6-0.3,0.1-0.9,0-1.3c-0.7-2.2-0.4-4.4-0.1-6.6C-136.8-73.2-135.6-75.3-135.1-78z
		 M-35-152.6c4.1,1.4,8.2,2,12.4,1.3c0.9-0.1,2.3-0.3,2.3-1.4c0-1.1-1.4-1.2-2.3-1.4C-26.9-154.9-31-154-35-152.6z M-31.5-148.6
		c1.8,1.8,3.7,2.7,6.1,2.4c0.7-0.1,1.3-0.4,1.3-1.2c0-0.8-0.7-0.7-1.3-0.8C-27.5-148.3-29.5-148.4-31.5-148.6z M-48.4-153.1
		c1.5,1.3,7.2,2,8.2,1.3c0.3-0.2,0.5-0.4,0.4-0.8c-0.1-0.5-0.6-0.6-1-0.6C-43.1-153.2-45.4-153.1-48.4-153.1z M-32.1-156.6
		c2.3-0.2,4-0.3,5.7-0.5c0.5-0.1,1.3,0.2,1.3-0.7c0-0.7-0.6-1-1.1-1.1C-28.3-159.3-30-158.5-32.1-156.6z M-191-106.6
		c0.2-9.7-0.5-21.6,0.5-33.5c1.1-14,8.2-22,21.9-24.8c4-0.8,7.5-2,10.3-5.2c1.2-1.3,2.8-2.4,4.2-3.4c4.3-3,9-3.7,13.9-1.6
		c1.6,0.7,3,0.8,4.7,0.1c6.3-2.4,12.8-0.6,17,4.5c1.1,1.4,2.3,1.8,4,1.8c10.1-0.2,20.2-0.7,30.3-0.3c12.1,0.4,23.2,3.6,32.2,12.1
		c0.8,0.8,1.7,0.9,2.8,0.9c1.7-0.1,3.5,0,5.3,0.1c4,0.2,7.9,0.1,10.9-3.5c1.4-1.7,3.8-2.3,6.1-2.3c2.5,0.1,4.4,0.9,4.9,3.7
		c0.2,1.1,0.9,1.4,1.8,1.8c1.6,0.6,3.1,1.5,3.2,3.4c0.1,1.9-1.3,2.9-2.9,3.7c-0.7,0.3-1,0.6-1.1,1.4c-0.6,3.6-3,5.2-6.7,4.5
		c-3-0.6-5.5-2.1-7.8-4.1c-1.3-1.1-7.3-2-8.7-1.3c-1.1,0.6-0.4,1.3-0.1,1.9c3.6,7.1,4.8,14.6,4.6,22.5c-0.1,2.9-0.6,5.7-1.6,8.4
		c-0.9,2.4-1,4.8-1,7.3c0.1,12,0.1,24,0.1,36c0,7.2-2.8,11.3-9.8,13c-9.6,2.4-19.2,2.8-28-3c-0.6-0.4-1.4-0.5-2.1-0.6
		c-4.3-0.8-8.5-1.5-11.6-7.6c-1.5-3-2.2-6.3-2.2-9.6c0-2.4-0.1-4.9,0-7.3c0.1-2.8-2-2.1-3.4-2.3c-1.9-0.3-2,0.9-1.9,2.3
		c0,5,0,9.9,0,14.9c0,8.8-2.9,12.7-11.6,14.7c-6.8,1.6-13.6,1.5-20.4-0.5c-1.3-0.4-2.7-0.7-3.6-1.6c-3-2.9-6.9-3.8-10.6-5.3
		c-5.2-2-7.6-6-7.6-11.6c0.1-9.4,0-18.9,0.1-28.3c0-2.1-0.7-2.8-2.7-2.6c-4.9,0.3-8.1,3.1-8.9,9c-1.1,8.1-1.6,16.3-2.5,24.5
		c-0.2,1.8-0.3,3.7-0.4,5.5c-0.2,4.7-3.5,7.1-8.8,7.7c-2.2,0.2-4.5,0.1-6.7-0.6c-4.2-1.3-5.9-3.8-5.9-8.4
		C-191-81.7-191-93.1-191-106.6z"/>
</g>
<path class="st7" d="M-655.7-111l11.1,143.5l59.4,16.5l56.9-16.5l12.4-143.5H-655.7z M-537.7-66h-27.2v26.4l26-2.9l-4.5,49.9
	l-37.1,9.9V1.6l23.9-6.6l1.6-20.6l-25.6,4.1v-60.2h43.7L-537.7-66z M-591.3,17.3l-42.9-10.7V-10l27.2,6.6v-78.4h15.7V17.3z"/>
<path class="st8" d="M-585.5-97.4V35.4l46.2-12.4l9.9-120.4H-585.5z M-539-42.5l-4.5,49.9l-37.1,9.9V1.6l23.9-6.6l1.6-20.6
	l-25.6,4.1v-60.2h43.7l-0.8,15.7h-27.2v26.4L-539-42.5z"/>
<path class="st9" d="M-681-156.9c0.1,1.4-0.4,2-1.9,1.9c-1.2-0.1-2.4,0-3.6,0c-2.4,0-4.8,0-7.3,0c-2.4,0-4.9,0-7.3,0
	c-2.4,0-4.8,0-7.3,0c-2.4,0-4.9,0-7.3,0c-2.4,0-4.8,0-7.3,0c-2.4,0-4.9,0-7.3,0c-2.4,0-4.8,0-7.3,0c-2.4,0-4.9,0-7.3,0
	c-2.4,0-4.8,0-7.3,0c-2.4,0-4.9,0-7.3,0c-2.4,0-4.8,0-7.3,0c-2.4,0-4.9,0-7.3,0c-2.4,0-4.8,0-7.3,0c-2.4,0-4.9,0-7.3,0
	c-2.4,0-4.8,0-7.3,0c-2.4,0-4.9,0-7.3,0c-2.4,0-4.8,0-7.3,0c-2.4,0-4.9,0-7.3,0c-2.4,0-4.8,0-7.3,0c-2.4,0-4.9,0-7.3,0
	c-2.4,0-4.8,0-7.3,0c-1.2,0-2.4-0.2-3.6,0c-1.5,0.2-2.1-0.4-1.9-1.9c0-2.4,0-4.8,0-7.3c0-2.4,0-4.9,0-7.3c0-2.4,0-4.8,0-7.3
	c0-2.4,0-4.9,0-7.3c0-2.4,0-4.8,0-7.3c0-2.4,0-4.9,0-7.3c0-2.4,0-4.8,0-7.3c0-2.4,0-4.9,0-7.3c0-2.4,0-4.8,0-7.3c0-2.4,0-4.9,0-7.3
	c0-2.4,0-4.8,0-7.3c0-2.4,0-4.9,0-7.3c0-2.4,0-4.8,0-7.3c0-2.4,0-4.9,0-7.3c0-2.4,0-4.8,0-7.3c0-2.4,0-4.9,0-7.3c0-2.4,0-4.8,0-7.3
	c0-2.4,0-4.9,0-7.3c0-2.4,0-4.8,0-7.3c0-2.4,0-4.9,0-7.3c0-2.4,0-4.8,0-7.3c0-2.4,0-4.9,0-7.3c-0.1-1.4,0.4-2,1.9-1.8
	c1.2,0.1,2.4,0,3.6,0c2.4,0,4.9,0,7.3,0c2.4,0,4.8,0,7.3,0c2.4,0,4.9,0,7.3,0c2.4,0,4.8,0,7.3,0c2.4,0,4.9,0,7.3,0
	c2.4,0,4.8,0,7.3,0c2.4,0,4.9,0,7.3,0c2.4,0,4.8,0,7.3,0c2.4,0,4.9,0,7.3,0c2.4,0,4.8,0,7.3,0c2.4,0,4.9,0,7.3,0c2.4,0,4.8,0,7.3,0
	c2.4,0,4.9,0,7.3,0c2.4,0,4.8,0,7.3,0c2.4,0,4.9,0,7.3,0c2.4,0,4.8,0,7.3,0c2.4,0,4.9,0,7.3,0c2.4,0,4.8,0,7.3,0c2.4,0,4.9,0,7.3,0
	c2.4,0,4.8,0,7.3,0c2.4,0,4.9,0,7.3,0c1.2,0,2.4,0.2,3.6,0c1.5-0.2,2.1,0.4,1.9,1.8c0,2.4,0,4.9,0,7.3c0,2.4,0,4.8,0,7.3
	c0,2.4,0,4.9,0,7.3c0,2.4,0,4.8,0,7.3c0,2.4,0,4.9,0,7.3c0,2.4,0,4.8,0,7.3c0,2.4,0,4.9,0,7.3c0,2.4,0,4.8,0,7.3c0,2.4,0,4.9,0,7.3
	c0,2.4,0,4.8,0,7.3c0,2.4,0,4.9,0,7.3c0,2.4,0,4.8,0,7.3c0,2.4,0,4.9,0,7.3c0,2.4,0,4.8,0,7.3c0,2.4,0,4.9,0,7.3c0,2.4,0,4.8,0,7.3
	c0,2.4,0,4.9,0,7.3c0,2.4,0,4.8,0,7.3c0,2.4,0,4.9,0,7.3c0,2.4,0,4.8,0,7.3c0,2.4,0,4.9,0,7.3C-681-161.8-681-159.3-681-156.9z
	 M-758.6-178.3c1.5-2.3,2.1-5,2.5-7.7c0.5-2.4,0.5-4.8,0.4-7.3c0-2.4,0-4.9,0-7.3c0-2.4,0-4.8,0-7.3c0-2.4,0-4.9,0-7.3
	c0-2.4,0-4.8,0-7.3c0-2.4,0-4.9,0-7.3c0-2.4,0-4.8,0-7.3c0-1.2,0.1-2.4,0.1-3.6c0-3.6,0-3.6-3.6-3c-2.4,0-4.8,0-7.3,0
	c-1.2-0.4-2.4-0.1-3.6-0.2c-0.8-0.1-1.1,0.3-1.1,1.1c0.1,1.9-0.2,3.8,0.2,5.7c-0.3,2.4-0.3,4.8,0,7.2c-0.3,2.4-0.3,4.9,0,7.3
	c-0.3,2.4-0.3,4.8,0,7.2c-0.3,2.4-0.3,4.9,0,7.3c-0.3,2.4-0.3,4.8,0,7.2c-0.3,2.4-0.3,4.9,0,7.3c-0.3,2.4-0.1,4.9-0.8,7.2
	c-0.6,1.3-1.4,2.4-2.5,3.3c-2.2,1.1-4.5,1.2-6.9,1.1c-1.8-0.6-3.5-1.5-4.8-3c-1.1-1.3-1.9-2.6-2.8-4c-0.4-0.6-0.6-0.8-1.4-0.4
	c-1.6,1-3.3,1.8-4.7,3c-0.2,0.1-0.4,0.2-0.6,0.3c-0.1,0.1-0.2,0.1-0.2,0.2l-0.1,0c-1.1,0.6-2.2,1.2-3.3,1.9c-3.2,1.9-3.2,1.9-0.8,5
	c1,1.9,2.4,3.5,4.1,4.8c4.1,3.9,9,5.6,14.6,5.8c2.4,0.5,4.9,0.2,7.3-0.2c0.6-0.1,1.2-0.2,1.8-0.3c5.4-1.2,10-3.6,12.8-8.6
	C-759.1-177.6-758.8-178-758.6-178.3z M-708.4-226c2-1.1,3.9-2.4,5.7-3.8c0.6-0.2,1.2-0.5,1.5-1c3-1.5,3-1.5,1.1-4.1
	c-0.3-0.5-0.8-0.9-1.1-1.4c-0.2-0.2-0.4-0.5-0.7-0.7c-1.7-2.3-4-4-6.6-5.1c-2.3-1.3-4.7-1.9-7.3-2.1c-2.4-0.3-4.8-0.6-7.3-0.1
	c-2.6,0-5,0.6-7.3,1.7c-6.1,2.3-10.1,6.5-11.7,12.9c-0.8,2.4-0.9,4.8-0.6,7.3c-0.1,2.6,0.5,5,1.5,7.3c0.8,2.1,1.9,4,3.5,5.5
	c0.5,0.7,1.1,1.3,1.8,1.8c1.6,1.7,3.5,2.8,5.5,3.9c2.3,1.3,4.7,2.6,7.3,3.4c2.4,1.1,4.8,2.2,7.3,3.3c1.9,1.2,3.9,2.3,5.4,4
	c1.2,2.3,1.4,4.8,0.5,7.2c-1.4,2.1-3.5,3.3-5.8,4.1c-2.4,0.5-4.8,0.3-7.3,0.3c-2.6-0.7-5.1-1.7-7.2-3.4c-0.4-0.3-0.7-0.7-1.1-1
	c-0.8-1-1.8-2-2.4-3.1c-0.9-1.7-1.8-1.8-3.2-0.6c-0.2,0.2-0.5,0.4-0.7,0.5c-2,0.9-3.8,2-5.6,3.2c-0.7,0.2-1.2,0.5-1.7,1
	c-2.9,1.3-2.9,1.3-1.2,3.8c0.4,0.5,0.8,1,1.2,1.5c0.1,0.4,0.3,0.8,0.7,1c1.7,2.5,4,4.4,6.6,5.9c0.7,0.7,1.6,1.1,2.5,1.4
	c1.5,0.9,3,1.6,4.8,1.9c2.3,1,4.8,1.4,7.3,1.4c2.4,0.5,4.8,0.5,7.3,0c5.4-0.3,10.4-1.8,14.6-5.4c2-1.3,3.4-3,4.4-5.1
	c1.5-2.2,2.3-4.7,2.5-7.3c0.6-2.4,0.5-4.9,0-7.3c-0.2-2.7-0.9-5.1-2.5-7.3c-1-2.2-2.6-3.9-4.4-5.3c-0.7-0.8-1.6-1.5-2.6-1.9
	c-1.4-1.2-3-2.1-4.7-2.8c-2.3-1.4-4.8-2.5-7.3-3.4c-0.8-0.5-1.6-0.9-2.5-1.1c-1.6-0.7-3.1-1.5-4.7-2.2c-1.9-1.3-3.8-2.6-4.5-5
	c-0.6-2.8,0.2-5.2,2-7.2c0.8-0.4,1.6-0.8,2.4-1.2c2.5-0.6,4.9-0.3,7.3,0.5c0.4,0.2,0.8,0.4,1.1,0.6c1.2,1,2.3,2.1,3.2,3.4
	C-710.1-224.5-710.1-224.5-708.4-226z"/>
<g>
	<path class="st10" d="M-793.6,84c-51-0.2-92.3,41.1-92.4,91.8c0,51,41.1,92.2,92,92.2c50.7,0,92-41.1,92.1-91.6
		C-701.8,125.5-742.8,84.2-793.6,84z M-782.7,131.2c0-0.5,0.2-0.6,0.6-0.6c1.3,0,2.7,0,4,0c0-0.3-0.2-0.4-0.3-0.6
		c-1.3-1.3-2.6-2.5-3.9-3.8c-0.3-0.2-0.4-0.5-0.4-0.9c0-1.4,0-2.8,0-4.2c0-0.5,0.2-0.6,0.6-0.6c3.7,0,7.3,0,11,0
		c0.4,0,0.6,0.1,0.6,0.6c0,1.4,0,2.8,0,4.1c0,0.5-0.2,0.6-0.6,0.6c-1.3,0-2.7,0-3.9,0c1.3,1.4,2.7,2.9,4.1,4.3
		c0.3,0.3,0.4,0.6,0.4,1c0,1.2,0,2.3,0,3.5c0,0.5-0.1,0.7-0.7,0.7c-3.6,0-7.3,0-10.9,0c-0.5,0-0.7-0.1-0.6-0.6
		C-782.7,133.6-782.7,132.4-782.7,131.2z M-800,131.2c0-0.5,0.2-0.6,0.6-0.6c1.3,0,2.7,0,4,0c0.1-0.3-0.2-0.4-0.3-0.5
		c-1.3-1.3-2.6-2.6-3.9-3.9c-0.3-0.3-0.4-0.5-0.4-0.9c0-1.4,0-2.8,0-4.1c0-0.4,0.1-0.6,0.6-0.6c3.7,0,7.4,0,11.1,0
		c0.5,0,0.6,0.1,0.6,0.6c0,1.4,0,2.7,0,4.1c0,0.5-0.2,0.6-0.7,0.6c-1.3,0-2.7,0-4,0c1.3,1.4,2.7,2.8,4,4.2c0.4,0.4,0.6,0.9,0.6,1.5
		c0,1.1,0,2.2,0,3.3c0,0.5-0.1,0.7-0.6,0.7c-3.7,0-7.3,0-11,0c-0.5,0-0.6-0.1-0.6-0.6C-800,133.6-800,132.4-800,131.2z
		 M-816.7,120.6c3.6,0,7.2,0,10.8,0c0.5,0,0.7,0.1,0.7,0.7c0,1.3,0,2.7,0,4c0,0.5-0.2,0.6-0.6,0.6c-1.9,0-3.8,0-5.7,0
		c-0.5,0-0.7,0.1-0.7,0.7c0,1.2,0,2.3,0,3.5c0,0.5,0.1,0.6,0.6,0.6c1.9,0,3.7,0,5.6,0c0.6,0,0.8,0.1,0.8,0.7c0,1.1,0,2.3,0,3.4
		c0,0.5-0.2,0.6-0.6,0.6c-3.6,0-7.3,0-10.9,0c-0.6,0-0.7-0.2-0.6-0.7c0-2.3,0-4.5,0-6.8c0-2.2,0-4.4,0-6.6
		C-817.4,120.8-817.3,120.6-816.7,120.6z M-754.5,143.4c-0.5,5.6-1,11.3-1.6,16.9c-0.5,5.5-1,10.9-1.5,16.4c-0.5,5.5-1,11-1.5,16.4
		c-0.5,4.9-0.9,9.7-1.3,14.6c-0.4,4.8-0.9,9.6-1.3,14.4c0,0.5-0.2,0.7-0.7,0.8c-10.4,2.8-20.7,5.6-31.1,8.4c-0.4,0.1-0.7,0.1-1,0
		c-10.3-2.8-20.6-5.6-30.9-8.3c-0.5-0.1-0.7-0.4-0.7-0.9c-0.4-4.9-0.9-9.7-1.3-14.6s-0.9-9.7-1.4-14.6c-0.4-4.3-0.8-8.6-1.2-12.9
		c-0.5-4.9-0.9-9.8-1.4-14.7c-0.4-4.3-0.8-8.6-1.2-12.9c-0.3-3-0.5-6.1-0.8-9.1c-0.1-0.8,0.2-0.8,0.8-0.8c6.7,0,13.4,0,20.1,0h57
		C-754.4,142.4-754.4,142.4-754.5,143.4z"/>
	<path class="st10" d="M-769.5,159.2c-0.2,2.9-0.5,5.7-0.6,8.6c0,0.5-0.4,0.6-0.7,0.7c-6.6,2.8-13.3,5.6-19.9,8.4
		c-1,0.4-2,0.8-3,1.3c0,0.1,0,0.1,0,0.2h0.9c6.9,0,13.9,0,20.8,0c0.7,0,0.9,0.1,0.8,0.9c-0.5,6-1,12.1-1.5,18.1
		c-0.3,3.5-0.6,7-0.8,10.6c0,0.6-0.2,0.8-0.8,1c-6.4,1.7-12.7,3.5-19.1,5.3c-0.4,0.1-0.8,0.1-1.2,0c-6.2-1.8-12.5-3.6-18.7-5.5
		c-0.5-0.1-0.8-0.3-0.8-0.9c-0.4-4.6-0.7-9.2-1.2-13.7c0-0.4,0.1-0.5,0.5-0.5c2.9,0,5.9,0,8.8,0c0.4,0,0.5,0.2,0.6,0.6
		c0.2,2.1,0.4,4.2,0.5,6.3c0,0.6,0.3,0.9,0.8,1c3.3,0.9,6.5,1.8,9.8,2.7c0.4,0.1,0.8,0.1,1.2,0c3.2-1,6.4-2,9.7-2.9
		c0.5-0.1,0.7-0.3,0.7-0.8c0.2-3.7,0.5-7.5,0.7-11.2c0.1-0.7-0.1-0.9-0.8-0.9c-10.8,0-21.6,0-32.4,0c-0.7,0-0.9-0.2-1-0.9
		c-0.1-2.7-0.3-5.4-0.5-8.1c0-0.6,0.1-0.8,0.6-1c7.6-3.2,15.2-6.4,22.8-9.6c0.1,0,0.2,0,0.2-0.2c-1.2,0-2.3,0-3.5,0
		c-6.8,0-13.6,0.1-20.3,0.2c-0.6,0-0.8-0.2-0.9-0.8c-0.4-2.7-0.8-5.5-1.2-8.2c-0.1-0.6,0-0.8,0.7-0.8c16,0,32.1,0,48.1,0
		C-769.6,158.5-769.4,158.7-769.5,159.2z"/>
</g>
<g>
	<g>
		<g>
			<path class="st11" d="M-880.6-457.7c-1.3-7.5-4.8-13.8-10.7-18.8c-5.8-5-12.6-7.5-20.2-7.5c-38.5-0.1-76.9,0-115.3,0
				c-1.1,0-2.2,0.1-3.3,0.2c-2.5,0.3-5,0.9-7.4,1.8c-6.5,2.4-11.7,6.6-15.5,12.4c-3.5,5.3-5.1,11.3-5.1,17.6c0,36.5,0,73.1,0,109.6
				c0,1.6,0.1,3.3,0.4,4.9c0.6,3.9,1.8,7.5,3.7,10.9c2,3.5,4.5,6.6,7.7,9.1c5.8,4.6,12.5,7,19.9,7c19.1,0,38.2,0,57.3,0h57.4
				c1.7,0,3.3-0.1,5-0.4c7.1-1.2,13.1-4.3,18-9.6c2.5-2.7,4.5-5.7,6-9c1.7-3.8,2.6-7.8,2.6-12c0-37.2,0-74.4,0-111.7
				C-880.2-454.6-880.3-456.2-880.6-457.7z M-1018.1-362.6v-75.3c0-1.5,0-1.5,1.5-1.5c4-0.1,8.1-0.2,12.1-0.3
				c3.7-0.1,7.5-0.2,11.2-0.1c4.5,0.1,9,0.5,13.3,2c3.7,1.2,7,3,9.9,5.5c3.3,2.9,5.5,6.5,6.8,10.7c1.2,3.8,1.4,7.8,1.1,11.7
				c-0.3,2.8-0.9,5.5-2,8.2c-1.8,4.1-4.6,7.4-8.2,10c-3.4,2.5-7.3,3.8-11.3,4.7c-3.5,0.7-7.1,1-10.7,1c-2,0-4,0-5.9-0.1
				c-0.3,0-0.6,0-0.9,0c-0.8,0-0.8,0-0.8,0.8v19.6c0,1.1,0,2.1,0,3.2c0,0.9-0.3,1.2-1.2,1.2c-4.5,0-9.1,0-13.6,0
				C-1017.9-361.3-1018.1-361.5-1018.1-362.6z M-919.5-363.5c-2.8,1.7-5.9,2.7-9.1,3.2c-6.5,1-12.9,0.6-19.3-0.9
				c-1.7-0.4-3.4-1-5-1.8c-0.8-0.4-1.2-0.9-1.2-1.8c0-2,0-4.1,0-6.1v-5.9c0-0.2,0-0.5,0-0.7c0.1-0.7,0.4-0.9,1-0.5
				c2,1.2,4.2,2.1,6.4,2.8c4.4,1.4,8.8,2.1,13.4,1.8c1.5-0.1,2.9-0.3,4.2-1c1-0.5,1.7-1.3,1.9-2.5c0.2-0.8,0-1.5-0.4-2.2
				c-0.5-0.8-1.2-1.4-1.9-1.8c-1.5-1-3.1-1.6-4.7-2.3c-2.1-0.9-4.3-1.6-6.3-2.6c-2.8-1.4-5.6-2.9-8-5c-2.6-2.4-4.6-5.3-5.2-8.9
				c-1.1-6.6,0.8-12.3,5.9-16.6c3.1-2.6,6.8-4.1,10.8-4.7c4-0.6,7.9-0.6,11.9-0.2c2.3,0.2,4.6,0.5,6.9,1.1c1,0.3,2,0.6,3,1
				c0.6,0.2,0.9,0.7,1,1.3c0,0.1,0,0.3,0,0.4c0,3.9,0,7.8,0,11.6c0,1-0.5,1.4-1.5,1.1c-0.2,0-0.4-0.1-0.5-0.2
				c-2.8-1.5-5.8-2.2-8.9-2.8c-2.6-0.4-5.3-0.7-7.9-0.5c-1.1,0.1-2.1,0.3-3.1,0.6c-2.4,0.7-3.5,3.7-1.4,5.7c0.8,0.8,1.7,1.4,2.7,1.9
				c2.4,1.2,5,2.2,7.5,3.2c3,1.2,5.9,2.6,8.6,4.4c4,2.6,6.7,6.1,7.3,10.9C-910.2-374.2-912.9-367.5-919.5-363.5z"/>
			<path class="st11" d="M-978.5-409.5c-0.6,3-2.4,5.1-4.9,6.8c-1.8,1.2-3.9,1.7-6,2.2c-1.7,0.4-3.3,0.5-5,0.5c-2.1,0-4.3,0-6.4,0
				c-0.2,0-0.4,0-0.6,0c-0.2,0-0.3-0.1-0.3-0.4c0-0.2,0-0.4,0-0.7v-22.9c0-0.2,0-0.4,0-0.6c0-0.3,0.1-0.5,0.4-0.5c0.1,0,0.2,0,0.3,0
				c3.2,0,6.3-0.2,9.4,0c2.6,0.1,5.1,0.7,7.5,1.8c3.5,1.7,5.3,4.6,5.9,8.4C-978-413.2-978.2-411.3-978.5-409.5z"/>
		</g>
	</g>
	<path class="st12" d="M-963.3-421.6c-1.3-4.2-3.5-7.8-6.8-10.7c-2.9-2.6-6.2-4.3-9.9-5.5c-4.3-1.4-8.8-1.9-13.3-2
		c-3.7-0.1-7.5,0.1-11.2,0.1c-4,0.1-8.1,0.2-12.1,0.3c-1.5,0-1.5,0-1.5,1.5v75.3c0,1.1,0.2,1.3,1.3,1.3c4.5,0,9.1,0,13.6,0
		c0.9,0,1.2-0.3,1.2-1.2c0-1.1,0-2.1,0-3.2v-19.6c0-0.8,0-0.8,0.8-0.8c0.3,0,0.6,0,0.9,0c2,0.1,4,0.1,5.9,0.1c3.6,0,7.2-0.3,10.7-1
		c4.1-0.8,7.9-2.2,11.3-4.7c3.6-2.6,6.4-5.8,8.2-10c1.1-2.6,1.7-5.3,2-8.2C-961.8-413.9-962.1-417.8-963.3-421.6z M-978.5-409.5
		c-0.6,3-2.4,5.1-4.9,6.8c-1.8,1.2-3.9,1.7-6,2.2c-1.7,0.4-3.3,0.5-5,0.5c-2.1,0-4.3,0-6.4,0c-0.2,0-0.4,0-0.6,0
		c-0.2,0-0.3-0.1-0.3-0.4c0-0.2,0-0.4,0-0.7v-22.9c0-0.2,0-0.4,0-0.6c0-0.3,0.1-0.5,0.4-0.5c0.1,0,0.2,0,0.3,0c3.2,0,6.3-0.2,9.4,0
		c2.6,0.1,5.1,0.7,7.5,1.8c3.5,1.7,5.3,4.6,5.9,8.4C-978-413.2-978.2-411.3-978.5-409.5z"/>
	<path class="st11" d="M-978.3-415c0.3,1.8,0.1,3.7-0.2,5.5c-0.6,3-2.4,5.1-4.9,6.8c-1.8,1.2-3.9,1.7-6,2.2c-1.7,0.4-3.3,0.5-5,0.5
		c-2.1,0-4.3,0-6.4,0c-0.2,0-0.4,0-0.6,0c-0.2,0-0.3-0.1-0.3-0.4c0-0.2,0-0.4,0-0.7v-22.9c0-0.2,0-0.4,0-0.6c0-0.3,0.1-0.5,0.4-0.5
		c0.1,0,0.2,0,0.3,0c3.2,0,6.3-0.2,9.4,0c2.6,0.1,5.1,0.7,7.5,1.8C-980.7-421.7-978.9-418.8-978.3-415z"/>
	<path class="st12" d="M-919.5-363.5c-2.8,1.7-5.9,2.7-9.1,3.2c-6.5,1-12.9,0.6-19.3-0.9c-1.7-0.4-3.4-1-5-1.8
		c-0.8-0.4-1.2-0.9-1.2-1.8c0-2,0-4.1,0-6.1v-5.9c0-0.2,0-0.5,0-0.7c0.1-0.7,0.4-0.9,1-0.5c2,1.2,4.2,2.1,6.4,2.8
		c4.4,1.4,8.8,2.1,13.4,1.8c1.5-0.1,2.9-0.3,4.2-1c1-0.5,1.7-1.3,1.9-2.5c0.2-0.8,0-1.5-0.4-2.2c-0.5-0.8-1.2-1.4-1.9-1.8
		c-1.5-1-3.1-1.6-4.7-2.3c-2.1-0.9-4.3-1.6-6.3-2.6c-2.8-1.4-5.6-2.9-8-5c-2.6-2.4-4.6-5.3-5.2-8.9c-1.1-6.6,0.8-12.3,5.9-16.6
		c3.1-2.6,6.8-4.1,10.8-4.7c4-0.6,7.9-0.6,11.9-0.2c2.3,0.2,4.6,0.5,6.9,1.1c1,0.3,2,0.6,3,1c0.6,0.2,0.9,0.7,1,1.3
		c0,0.1,0,0.3,0,0.4c0,3.9,0,7.8,0,11.6c0,1-0.5,1.4-1.5,1.1c-0.2,0-0.4-0.1-0.5-0.2c-2.8-1.5-5.8-2.2-8.9-2.8
		c-2.6-0.4-5.3-0.7-7.9-0.5c-1.1,0.1-2.1,0.3-3.1,0.6c-2.4,0.7-3.5,3.7-1.4,5.7c0.8,0.8,1.7,1.4,2.7,1.9c2.4,1.2,5,2.2,7.5,3.2
		c3,1.2,5.9,2.6,8.6,4.4c4,2.6,6.7,6.1,7.3,10.9C-910.2-374.2-912.9-367.5-919.5-363.5z"/>
</g>
<g>
	<path class="st13" d="M824.3,190c-22.5,0-45,0-67.5,0c-13.8,0-22-8.2-22-22c0-45.3,0-90.6,0-135.9c0-13.8,8.2-22,22-22
		c45.3,0,90.6,0,135.9,0c13.8,0,22,8.2,22,22c0,45.3,0,90.6,0,135.9c0,13.8-8.2,22-22,22C870,190,847.1,190,824.3,190z M825.3,25
		c-23.7,0-47.3,0.1-71-0.1c-3.8,0-4.6,1.1-4.6,4.8c0.1,47,0.1,93.9,0,140.9c0,3.4,0.7,4.5,4.4,4.5c47.1-0.1,94.3-0.1,141.4,0
		c3.6,0,4.4-1.1,4.4-4.5c-0.1-47-0.1-93.9,0-140.9c0-4.3-1.5-4.8-5.1-4.7C871.6,25.1,848.5,25,825.3,25z"/>
	<path class="st14" d="M825.3,25c23.2,0,46.3,0.1,69.5-0.1c3.6,0,5.2,0.5,5.1,4.7c-0.2,47-0.1,93.9,0,140.9c0,3.4-0.8,4.5-4.4,4.5
		c-47.1-0.1-94.3-0.1-141.4,0c-3.6,0-4.4-1.1-4.4-4.5c0.1-47,0.1-93.9,0-140.9c0-3.6,0.8-4.8,4.6-4.8C778,25.1,801.7,25,825.3,25z
		 M780.9,135c4.6,0,8.2-0.1,11.9,0c2.4,0.1,3.4-0.7,4.1-3.1c1.1-3.7,0.4-9.1,3.9-10.9c3.2-1.6,7.8-0.5,11.8-0.6c0.5,0,1,0.1,1.5,0
		c4-0.7,5.8,0.9,6.8,5c2.3,9.7,2.5,9.4,12.5,9.6c4.9,0.1,4.9-1.6,3.6-5.4c-6.2-19.1-12.2-38.4-18.2-57.6c-2.6-8.3-2.6-8.1-11.4-8.3
		c-3.6-0.1-4.8,1.2-5.7,4.4c-2.7,9.4-5.8,18.7-8.8,28.1C789,109,785.1,121.7,780.9,135z M859,109c0-5.8,0-11.6,0-17.4
		c0-9.5,0-9.4-9.4-9.4c-3.5,0-4.6,1.1-4.5,4.5c0.2,12.8,0.1,25.6,0.1,38.4c0,10.4,0,10.3,10.2,10.1c2.8-0.1,3.7-0.8,3.7-3.7
		C858.9,123.9,859,116.4,859,109z M859.6,68.4c0-4.3-3.3-7.3-7.7-7.3c-4.2,0.1-7.2,3-7.2,7.2c0,4.5,2.9,7.5,7.4,7.5
		C856.4,75.9,859.7,72.7,859.6,68.4z"/>
	<path class="st13" d="M780.9,135c4.1-13.3,8-26,12-38.6c2.9-9.4,6-18.7,8.8-28.1c0.9-3.2,2.2-4.5,5.7-4.4c8.8,0.2,8.8,0,11.4,8.3
		c6,19.2,12,38.4,18.2,57.6c1.2,3.8,1.3,5.6-3.6,5.4c-10-0.3-10.3,0-12.5-9.6c-1-4.1-2.1-5.5-6.8-5c-0.5,0-1,0-1.5,0
		c-4,0.1-8.6-1-11.8,0.6c-3.5,1.8-2.7,7.1-3.9,10.9c-0.7,2.4-1.7,3.2-4.1,3.1C789.2,134.9,785.5,135,780.9,135z M810.4,86.4
		c-0.5,0-1-0.1-1.5-0.1c-1.7,6.5-3.4,13.1-5.1,19.6c-0.2,0.9-0.6,2.4,0.7,2.5c3.5,0.2,6.9,0.1,10.4,0c1.1,0,1-1.2,0.8-2
		C814,99.6,812.2,93,810.4,86.4z"/>
	<path class="st13" d="M859,109c0,7.5-0.1,15,0.1,22.4c0.1,2.8-0.9,3.6-3.7,3.7c-10.2,0.2-10.2,0.3-10.2-10.1
		c0-12.8,0.1-25.6-0.1-38.4c0-3.5,1-4.5,4.5-4.5c9.4,0.1,9.4-0.1,9.4,9.4C859,97.3,859,103.2,859,109z"/>
	<path class="st13" d="M859.6,68.4c0,4.3-3.2,7.4-7.6,7.4c-4.4,0-7.4-3-7.4-7.5c0-4.1,3-7.1,7.2-7.2
		C856.3,61.1,859.6,64.2,859.6,68.4z"/>
	<path class="st14" d="M810.4,86.4c1.8,6.6,3.6,13.3,5.3,19.9c0.2,0.8,0.2,1.9-0.8,2c-3.5,0.2-6.9,0.2-10.4,0
		c-1.3-0.1-1-1.5-0.7-2.5c1.7-6.5,3.4-13.1,5.1-19.6C809.4,86.3,809.9,86.3,810.4,86.4z"/>
</g>
<g>
	<path class="st15" d="M-514.4-342.4h-132.2c-9.1,0-16.4-7.3-16.4-16.4v-128.5c0-9.1,7.3-16.4,16.4-16.4h132.2
		c9.1,0,16.4,7.3,16.4,16.4v128.5C-498-349.7-505.3-342.4-514.4-342.4z"/>
	<g>
		<path class="st15" d="M-580.6-489.7C-580.6-489.7-580.6-489.7-580.6-489.7c-22.4,0-44.9,0-67.3,0c-0.9,0-1.6-0.1-1.6,1.3
			c0,43.8,0,87.6,0,131.4c0,1.1,0.3,1.4,1.4,1.4c45,0,89.9,0,134.9,0c1.5,0,1.5,0,1.5-1.5c0-43.7,0-87.3,0-131
			c0-1.8,0.3-1.6-1.6-1.6C-535.8-489.7-558.2-489.7-580.6-489.7z"/>
		<path class="st16" d="M-580.6-489.7c22.4,0,44.9,0,67.3,0c1.9,0,1.6-0.1,1.6,1.6c0,43.7,0,87.3,0,131c0,1.4,0,1.5-1.5,1.5
			c-45,0-89.9,0-134.9,0c-1.1,0-1.4-0.3-1.4-1.4c0-43.8,0-87.6,0-131.4c0-1.4,0.7-1.3,1.6-1.3C-625.5-489.7-603.1-489.7-580.6-489.7
			C-580.6-489.7-580.6-489.7-580.6-489.7z M-588.8-406.8C-588.8-406.8-588.8-406.8-588.8-406.8c3.1,0,6.2-0.1,9.3,0
			c1.3,0,2.8-0.5,3.8,0.2c0.9,0.7,1,2.3,1.5,3.5c1.9,5.1,3.8,10.2,5.7,15.3c0.4,1,0.9,1.4,2,1.4c3.7-0.1,7.5,0,11.2,0
			c1.7,0,1.8-0.2,1.2-1.8c-4-10.6-8-21.3-11.9-31.9c-4.7-12.6-9.3-25.3-14-37.9c-0.3-0.9-0.8-1.2-1.7-1.2c-4.7,0-9.4,0-14.2,0
			c-1.4,0-1.5,0.1-1.6,1.5c-0.1,2.2-0.5,4.3-1.3,6.4c-2.2,5.8-4.3,11.5-6.5,17.3c-1.3,3.5-2.5,6.9-3.9,10.4
			c-3.3,8.8-6.5,17.8-9.8,26.6c-1.1,2.9-2.1,5.9-3.2,8.9c-0.5,1.3-0.3,1.6,1.1,1.6c3.4,0,6.9,0,10.3,0c1.2,0,1.7-0.4,2.1-1.5
			c2.1-5.9,4.3-11.9,6.4-17.8c0.3-0.8,0.6-1,1.5-1C-596.9-406.7-592.8-406.8-588.8-406.8z M-538.3-413.6
			C-538.3-413.6-538.3-413.6-538.3-413.6c0-3.9,0-7.7,0-11.6c0-4.9,0-9.7,0-14.6c0-0.5,0.2-1.1-0.7-1.1c-3.8,0-7.6,0-11.4,0
			c-0.5,0-0.6,0.2-0.7,0.6c-0.3,1.1,0,2.1,0,3.2c0,16.5,0,33,0,49.5c0,1,0.3,1.1,1.1,1c3.5,0,7.1,0,10.6,0c1,0,1.2-0.3,1.2-1.2
			C-538.3-396.3-538.3-405-538.3-413.6z M-544.6-444.9c3.4,0,6.1-2.8,6.1-6.1c0-3.5-2.7-6.2-6.1-6.2c-3.6,0-6.3,2.7-6.2,6.2
			C-550.8-447.6-548.1-444.8-544.6-444.9z"/>
		<path class="st15" d="M-588.8-406.8c-4,0-8.1,0-12.1,0c-0.8,0-1.2,0.2-1.5,1c-2.1,5.9-4.3,11.9-6.4,17.8c-0.4,1.1-0.9,1.5-2.1,1.5
			c-3.4-0.1-6.9,0-10.3,0c-1.4,0-1.6-0.3-1.1-1.6c1-3,2-6,3.2-8.9c3.4-8.8,6.5-17.8,9.8-26.6c1.3-3.5,2.6-6.9,3.9-10.4
			c2.2-5.8,4.3-11.5,6.5-17.3c0.8-2.1,1.2-4.2,1.3-6.4c0.1-1.5,0.2-1.5,1.6-1.5c4.7,0,9.4,0,14.2,0c1,0,1.4,0.3,1.7,1.2
			c4.6,12.6,9.3,25.3,14,37.9c4,10.6,7.9,21.3,11.9,31.9c0.6,1.6,0.5,1.8-1.2,1.8c-3.7,0-7.5-0.1-11.2,0c-1.1,0-1.6-0.4-2-1.4
			c-1.9-5.1-3.8-10.2-5.7-15.3c-0.4-1.2-0.5-2.8-1.5-3.5c-1-0.7-2.5-0.2-3.8-0.2C-582.6-406.8-585.7-406.8-588.8-406.8
			C-588.8-406.8-588.8-406.8-588.8-406.8z M-589.1-447.9c-0.5,1.7-0.9,3.2-1.3,4.7c-2.5,8.2-5.4,16.3-8.2,24.5
			c-0.3,0.8-0.3,1.2,0.8,1.2c6,0,12,0,18,0c1,0,1.1-0.3,0.8-1.2c-2-5.6-3.9-11.3-5.9-16.9C-586.3-439.6-587.7-443.7-589.1-447.9z"/>
		<path class="st15" d="M-538.3-413.6c0,8.6,0,17.3,0,25.9c0,0.9-0.2,1.2-1.2,1.2c-3.5-0.1-7.1,0-10.6,0c-0.8,0-1.1-0.1-1.1-1
			c0-16.5,0-33,0-49.5c0-1.1-0.3-2.1,0-3.2c0.1-0.5,0.3-0.6,0.7-0.6c3.8,0,7.6,0,11.4,0c0.9,0,0.7,0.6,0.7,1.1c0,4.9,0,9.7,0,14.6
			C-538.2-421.3-538.2-417.5-538.3-413.6C-538.3-413.6-538.3-413.6-538.3-413.6z"/>
		<path class="st15" d="M-544.6-444.9c-3.4,0.1-6.2-2.7-6.2-6.1c0-3.5,2.7-6.2,6.2-6.2c3.4,0,6.1,2.7,6.1,6.2
			C-538.5-447.6-541.3-444.9-544.6-444.9z"/>
		<path class="st16" d="M-589.1-447.9c1.4,4.3,2.8,8.3,4.2,12.3c1.9,5.6,3.9,11.3,5.9,16.9c0.3,0.9,0.3,1.2-0.8,1.2c-6,0-12,0-18,0
			c-1.1,0-1-0.3-0.8-1.2c2.8-8.1,5.7-16.2,8.2-24.5C-590-444.7-589.6-446.2-589.1-447.9z"/>
	</g>
</g>
<g>
	<g>
		<path class="st17" d="M-663,297c0-19.9,0-39.8,0-59.7c0-14.7,9.7-26.7,24.1-29.8c1.9-0.4,3.9-0.5,5.9-0.5c39.9,0,79.9,0,119.8,0
			c16.9,0,30.1,13.2,30.1,30.2c0,39.9,0,79.7,0,119.6c0,16.9-13.2,30.2-30.1,30.2c-39.9,0-79.9,0-119.8,0c-16.8,0-30-13.3-30-30.1
			C-663,336.9-663,317-663,297z M-546,294.6c0.7-0.5,1.1-0.7,1.5-1c7.5-4,12-10.1,12.7-18.7c1-11.8-2.9-22-15.4-26.4
			c-5-1.8-10.5-2.7-15.9-2.8c-16.2-0.4-32.4-0.1-48.5-0.2c-2.3,0-2.9,0.7-2.9,2.9c0.1,33.4,0.1,66.7,0,100.1c0,2.2,0.6,2.8,2.8,2.7
			c16-0.1,32,0.1,48.1-0.1c4.3,0,8.7-0.6,12.9-1.5c15.2-3.5,23.2-12.6,23.8-26.9C-526.5,310.6-531.1,298.8-546,294.6z"/>
		<path class="st17" d="M-595.4,335.8c0-10.9,0-21.4,0-32.3c1.4,0,2.7,0,4,0c9.5,0,19-0.1,28.6,0c2.3,0,4.6,0.4,6.8,1
			c6.1,1.7,10,6.6,10.2,13c0.1,2.4,0,4.8-0.5,7.1c-1.4,6.4-6.4,10.9-13.6,11.1C-571.8,336.1-583.5,335.8-595.4,335.8z"/>
		<path class="st17" d="M-595.5,289.6c0-9.4,0-18.7,0-28.1c0.9-0.1,1.7-0.2,2.5-0.2c9.2,0,18.4-0.1,27.6,0c2.3,0,4.8,0.4,7,1.1
			c5.3,1.6,7.8,5.4,8,11.9c0.4,9.2-5,15.2-14.3,15.5c-9.8,0.3-19.7,0.1-29.5,0C-594.6,289.8-594.9,289.7-595.5,289.6z"/>
	</g>
</g>
<g>
	<path d="M-209.8-294.9c-50.2,0.1-91.1-40.7-91.2-90.8c-0.1-51,40.2-92,90.4-92.1c50.8-0.1,91.8,40.4,91.8,90.7
		C-118.8-335.7-159-295-209.8-294.9z M-210.3-299.8c47.6,0.3,86.4-38.2,86.6-85.9c0.2-48.2-38-87.2-85.7-87.4
		c-47.5-0.2-86.2,38.2-86.6,86C-296.4-339-258.2-300.1-210.3-299.8z"/>
	<path d="M-258.2-423.5c3.3,0,5.7,0.5,7.7-0.2c1.5-0.4,2.5-2.3,3.7-3.5c-1.3-1-2.5-2.8-3.8-2.8c-7.8-0.3-15.6-0.1-24.5-0.1
		c12.3-17.9,28.6-29.2,49.4-33.3c25-5,47.4,1.1,67.3,17.8c-12.4,4.9-15.7,13.4-10.3,25.2c1.3,2.8,2.8,5.4,4.5,8
		c6.8,10.3,8.7,21.6,5.5,33.4c-3.5,12.8-7.7,25.4-12.9,38c-9.1-27.1-18.3-54.1-27.8-82.5c3.6,0,6,0.4,8.2-0.2
		c1.1-0.3,2.4-2.1,2.5-3.4c0.1-0.9-1.5-2.9-2.4-2.9c-14.6-0.2-29.2-0.1-44.1-0.1c0,2.4,0,4.1,0,5.7c0.4,0.3,0.8,0.7,1,0.7
		c8-1.2,10.3,3.5,13.4,10.1c7.6,15.8,8.3,30.8,0.7,46.7c-4,8.5-6.1,17.9-9.6,28.5C-239.2-367.5-248.5-395-258.2-423.5z"/>
	<path d="M-208.5-379.7c8.5,23.3,16.3,45,24.5,67.5c-16.2,5.6-31.8,5.8-48.4,1.2C-224.5-333.7-216.8-355.9-208.5-379.7z"/>
	<path d="M-281.2-417.7c12.3,33.9,24.5,67.2,36.7,100.8C-279.1-330.2-299.5-379.5-281.2-417.7z"/>
	<path d="M-170.7-319c9.4-34.1,26.5-65.6,30.7-101.2C-119.4-392.9-137.8-332.2-170.7-319z"/>
</g>
<g>
	<path class="st18" d="M46,112.5c-0.9,1-1.2,2.3-1.7,3.4c-2.3,5-4.6,10.1-6.8,15.1c-1.1,2.5-2.8,3.7-5.6,3.7c-2.8,0-4.4-1.4-5.5-3.8
		c-2.6-6-5.3-11.9-8-17.9c-0.1-0.2-0.1-0.6-0.6-0.6c-0.2,0.6-0.1,1.3-0.1,1.9c0,6.2,0,12.4,0,18.6c0,1.1-0.3,1.6-1.5,1.5
		c-1.4-0.2-3.2,0.6-4-0.3c-0.7-0.8-0.2-2.6-0.2-3.9c0-6.4,0-12.7,0-19.1c0-2,0.7-2.9,2.5-3.5c3.6-1.2,6.4-0.6,8.1,1.7
		c0.5,0.6,0.8,1.4,1.1,2.2c2.5,5.7,5,11.5,7.4,17.2c0.1,0.3,0.1,0.9,0.6,0.9c0.5,0,0.5-0.5,0.6-0.8c2.7-6,5.4-12,8.1-18
		c1.7-3.8,7-5.1,10.3-2.4c0.9,0.7,1.3,1.7,1.3,2.8c0,7.5,0,14.9,0.1,22.4c0,0.8-0.4,1-1.1,1c-1.2,0-2.4-0.1-3.6,0
		c-1.1,0.1-1.3-0.4-1.3-1.4c0-6.5,0-12.9,0-19.4C46.3,113.3,46.5,112.9,46,112.5z"/>
	<path class="st18" d="M187,115.6c-3-3.5-7.2-4.5-10.5-6.8c-1.7-1.2-3.2-2.4-4.2-4.3c-0.8-1.5-0.7-1.6,0.8-2.2
		c2.5-1,5.1-1.4,7.8-1.4c0.3,0,0.8,0.3,1-0.3c0.1-0.4-0.3-0.6-0.6-0.8c-3.5-2.3-6.7-5.2-11-6.1c-2.6-0.5-4-2.1-5-4.4
		c-1.7-3.9-3.4-7.7-5.2-11.6c-4.2-8.9-10.8-15.5-20-19.2c-1.6-0.7-3.3-0.6-5-0.7c-1-0.1-1.7-0.4-2.5-1c-1.8-1.5-4-2.5-6.2-3.2
		c-0.7-0.2-1.5-0.3-2,0.3c-0.6,0.6-0.3,1.4,0,2c0.3,0.6,0.7,1.3,1.1,1.8c2.6,3,4.3,6.4,5.4,10.3c0.7,2.4,1.7,4.7,3.5,6.5
		c1.2,1.2,0.7,2.5,0.2,3.8c-1.2,3-1.6,6.1-1.3,9.3c0.2,1.9,0.6,3.8,1.5,5.6c0.3,0.6,0.6,1.1,1.1,1.5c0.6,0.5,1,0.5,1.2-0.4
		c0.1-1,0.3-2.1,0.4-3.1c0.2-1.9,1-3.5,2.2-4.9c0.2-0.2,0.3-0.7,0.7-0.6c0.4,0.1,0.4,0.5,0.5,0.8c1.8,4.7,4.2,9.1,7.3,13.1
		c0.9,1.1,1.9,2.2,2.9,3.2c-0.3,0.1-0.6-0.1-0.8-0.3c-2.2-2.1-4.7-4-6.7-6.3c-1.1-1.3-1.8-2.8-2.5-4.4c-0.1-0.2-0.2-0.5-0.5-0.5
		c-0.4,0-0.4,0.4-0.4,0.6c-0.2,1.1-0.3,2.3-0.5,3.4c-0.5,2.4-2.7,3.1-4.6,1.5c-2.4-2-3.2-4.9-3.7-7.8c-0.7-4,0.2-7.9,1.3-11.7
		c0.2-0.6,0.5-1.1,0-1.6c-2.6-2.8-3.7-6.4-4.7-9.9c-0.7-2.3-2.1-4.1-3.4-6c-0.8-1.1-1.8-2.2-2.3-3.5c-0.6-1.5-0.4-3,0.7-4.2
		c1.1-1.2,2.5-1.5,4.1-1.1c2.6,0.7,5,1.8,7.1,3.5c0.6,0.5,1.3,0.9,2.1,0.9c4.4,0,8.2,1.8,11.7,4.2c6.2,4.3,11.3,9.5,14.5,16.3
		c1.9,4,3.7,8.1,5.6,12.2c0.7,1.5,1.6,2.5,3.2,3.1c5.2,2.1,9.7,5.2,13.4,9.5c0.8,0.9,0.6,1.2-0.5,1.5c-2.4,0.7-4.9,0.7-7.2,1.5
		c-0.4,0.1-1,0-1.1,0.5c-0.1,0.4,0.4,0.8,0.7,1c0.3,0.3,0.7,0.6,1,0.8c3.4,1.8,6.2,4.4,8.7,7.3C186.6,114,187.1,114.4,187,115.6z"/>
	<path class="st19" d="M147.7,121c0,2.1,0,4.2,0,6.4c0,2.2-0.5,4.1-2.5,5.3c-0.7,0.4-0.5,0.8,0,1.2c1.3,1.2,2.6,2.3,3.8,3.5
		c0.2,0.2,0.6,0.3,0.4,0.7c-0.1,0.3-0.5,0.3-0.7,0.3c-1.6,0-3.2,0-4.8,0c-0.8,0-1.3-0.4-1.7-0.9c-2.1-2.6-4.7-3.6-8.2-3.2
		c-3.1,0.4-6.3,0.4-9.3-0.2c-1.2-0.3-2.3-0.7-3.3-1.4c-1.5-1-2.5-2.4-2.5-4.3c0-5.1,0-10.1,0-15.2c0-2,1.3-3.4,2.9-4.3
		c1.3-0.8,2.8-1.3,4.2-1.3c5.1-0.1,10.1-0.5,15.2,0.2c4.8,0.6,6.9,3.1,6.6,7.5C147.6,117.1,147.7,119.1,147.7,121
		C147.7,121,147.7,121,147.7,121z M142.1,121C142.1,121,142.1,121,142.1,121c0-2,0-4,0-6.1c0-2.1-0.8-3.2-2.9-3.4
		c-3.8-0.3-7.7-0.4-11.5,0.1c-2,0.2-2.7,1.2-2.7,3.2c0,3.9,0,7.9,0,11.8c0,2.2,1.2,3.5,3.4,3.7c1.6,0.1,3.2,0.1,4.8,0.1
		c0.3,0,0.6,0.1,0.7-0.3c0.1-0.3-0.3-0.5-0.5-0.6c-0.9-0.8-1.8-1.6-2.6-2.5c-0.2-0.2-0.5-0.4-0.4-0.7c0.1-0.4,0.5-0.3,0.7-0.3
		c3.2-0.2,6.4-0.2,8.5,2.8c0.1,0.1,0.1,0.1,0.2,0.2c0.9,0.9,1.5,0.5,2-0.4c0.3-0.5,0.3-1,0.3-1.5C142.1,125.2,142.1,123.1,142.1,121
		z"/>
	<path class="st18" d="M84.7,126.5c0,2.7-0.1,5.4,0,8.1c0.3,4.9-2.2,6.2-5.6,7.3c-1,0.3-2.1,0.4-3.1,0.4c-5.8,0-11.7,0-17.5,0
		c-1.2,0-1.4-0.4-1.4-1.5c0.1-2.9-0.2-2.4,2.4-2.4c5,0,10,0,15,0c0.9,0,1.7,0,2.6-0.3c1.5-0.6,2.2-1.9,1.8-3.5
		c-0.2-0.7-0.8-0.6-1.3-0.6c-3.7,0-7.4,0-11.1,0c-2.5,0-4.9-0.5-7-1.8c-1.6-1-2.4-2.4-2.4-4.3c0.1-3.7,0.1-7.4,0-11.1
		c0-1,0.3-1.3,1.2-1.3c1.2,0.1,2.3,0.1,3.5,0c1-0.1,1.2,0.3,1.2,1.2c0,3.6,0,7.1,0,10.7c0,2.1,0.6,2.9,2.8,3c4.1,0.1,8.2,0,12.3,0.1
		c1,0,0.9-0.6,0.9-1.2c0-4.1,0-8.2,0-12.3c0-1.2,0.2-1.7,1.5-1.6c1.4,0.2,3.2-0.6,4.1,0.3c0.8,0.9,0.2,2.7,0.2,4.1
		c0,1.1,0,2.2,0,3.3S84.7,125.4,84.7,126.5C84.7,126.5,84.7,126.5,84.7,126.5z"/>
	<path class="st19" d="M105.4,107.4c2.8,0,5.7,0,8.5,0c1.1,0,1.5,0.4,1.4,1.4c0,0.4,0,0.8,0,1.2c0.1,1.2-0.4,1.5-1.5,1.5
		c-5-0.2-10-0.1-15,0c-0.7,0-1.4,0-2.1,0.2c-0.4,0.1-0.8,0.2-1,0.5c-0.9,1.6-0.6,3.3-0.3,4.9c0.3,1.3,1.5,1.7,2.7,1.8
		c2.5,0.1,5.1,0.1,7.7,0.1c2.5,0,4.9,0.5,7,1.8c1.5,0.9,2.4,2.2,2.3,4c-0.1,1.1-0.1,2.1,0,3.2c0.1,2.2-1,3.8-2.8,4.8
		c-1.8,1-3.8,1.6-5.9,1.6c-5.2,0-10.4,0-15.6,0c-1.3,0-1.8-0.3-1.6-1.6c0.1-0.3,0.1-0.7,0-1c-0.1-1.1,0.4-1.4,1.4-1.4
		c4.7,0,9.4,0,14.2,0c0.8,0,1.5,0,2.3-0.2c1.3-0.4,2.2-1.2,2.1-2.7c0-0.9,0-1.7-0.1-2.6c-0.1-1.3-1.1-1.8-2.3-2.1
		c-1.5-0.3-3-0.2-4.5-0.2c-2.9-0.1-5.8,0.2-8.6-0.8c-3.5-1.2-4.5-2.7-4.5-6.3c0-0.2,0-0.4,0-0.6c-0.4-4.6,1.9-6.7,6.8-7.3
		c3.1-0.4,6.2-0.1,9.4-0.1C105.4,107.5,105.4,107.5,105.4,107.4z"/>
	<path class="st19" d="M151.2,118.2c0-3.1,0.1-6.2,0-9.2c0-1.2,0.4-1.6,1.6-1.5c1.1,0.1,2.1,0,3.2,0c0.9,0,1.3,0.3,1.3,1.2
		c0,6.2,0,12.3,0,18.5c0,2.1,0.5,2.8,2.6,3.1c1.4,0.2,2.8,0.2,4.2,0.2c3.8,0,7.7,0,11.5,0c1.1,0,1.5,0.3,1.5,1.4
		c0,3.2,0.1,2.6-2.5,2.6c-5,0-9.9,0.2-14.9-0.1c-1.5-0.1-2.9-0.4-4.3-1c-2.8-1.1-4.1-3-4.2-5.9C151.2,124.3,151.2,121.2,151.2,118.2
		z"/>
	<path class="st18" d="M138.5,64.9c-0.1,0.2-0.2,0.6-0.3,0.9c-0.3,0.7-0.7,0.8-1.1,0c-0.4-1-0.9-1.8-1.6-2.5c-0.6-0.7-0.3-0.9,0.4-1
		C137,62.1,138.5,63.4,138.5,64.9z"/>
	<path class="st20" d="M142.1,121c0,2.1,0,4.1,0,6.2c0,0.5,0,1-0.3,1.5c-0.5,0.9-1.2,1.3-2,0.4c-0.1-0.1-0.2-0.1-0.2-0.2
		c-2.1-3.1-5.3-3.1-8.5-2.8c-0.3,0-0.6-0.1-0.7,0.3c-0.1,0.3,0.2,0.5,0.4,0.7c0.9,0.8,1.8,1.6,2.6,2.5c0.2,0.2,0.6,0.3,0.5,0.6
		c-0.1,0.4-0.5,0.3-0.7,0.3c-1.6,0-3.2,0.1-4.8-0.1c-2.2-0.2-3.4-1.5-3.4-3.7c0-3.9,0-7.9,0-11.8c0-2,0.8-3,2.7-3.2
		c3.8-0.4,7.7-0.4,11.5-0.1c2.1,0.2,2.9,1.3,2.9,3.4C142.1,117,142.1,119,142.1,121C142.1,121,142.1,121,142.1,121z"/>
</g>
<g>
	<path class="st19" d="M180,130.7h-1.2v-0.8h3.3v0.8H181v3.4H180V130.7z"/>
	<path class="st19" d="M183.2,129.9h1.4l1,2.7h0l1-2.7h1.4v4.2h-0.9v-3.2h0l-1.1,3.2h-0.7l-1.1-3.2h0v3.2h-0.9V129.9z"/>
</g>
</svg>
