<?xml version="1.0" encoding="utf-8"?>
<!-- Generator: Adobe Illustrator 23.0.3, SVG Export Plug-In . SVG Version: 6.00 Build 0)  -->
<svg version="1.1" id="Calque_1" xmlns="http://www.w3.org/2000/svg" xmlns:xlink="http://www.w3.org/1999/xlink" x="0px" y="0px"
	 viewBox="0 0 200 200" style="enable-background:new 0 0 200 200;" xml:space="preserve">
<style type="text/css">
	.st0{fill:#2E3192;}
	.st1{fill:#FFFFFF;}
	.st2{fill:none;stroke:#FFFFFF;stroke-miterlimit:10;}
	.st3{fill:#040404;}
</style>
<g>
	<path class="st0" d="M-256,195h-119c-19.3,0-35-15.7-35-35V41c0-19.3,15.7-35,35-35h119c19.3,0,35,15.7,35,35v119
		C-221,179.3-236.7,195-256,195z"/>
</g>
<path class="st1" d="M-270.3,49.5c-0.4-2.7-2.5-6.3-8.6-7.4c-6.1-1.1-13.3,2.5-18.7,4.3c-4.3-3.5-10.5-5.4-17.3-5.4
	c-6.8,0-13,1.9-17.3,5.4c-5.4-1.8-12.7-5.5-18.8-4.3c-6.1,1.1-8.2,4.7-8.6,7.4c-1.7,10.3,4.1,11.6,3,27c-1.2,15.9,8.8,26,13.3,26.3
	c6.3,0.4,10.9-4,13.8-11.1c0.9,1.2,1.9,2.2,3,3.2l0,0.4c-0.1,10-7,17.5-9.8,17.5h0l-0.5,0l0,0.5c-0.1,0.8,1.7,1.1,1.8,1.1
	c0.4,0.1,0.8,0.1,1.2,0.1c5.3,0,10.6-6.4,12.6-15.3c0.2,6.7,1.6,13.3,4.1,19.5c1.6,4.1,5.1,7.1,9.3,8c6.1,1.1,8.8-1.4,8.8-4.9
	c0-3.8-4.1-0.7-7.4-5.9c-2.3-4.1-2-10.8-1.9-16.4c2,8.8,7.2,15,12.5,15c0.4,0,0.8,0,1.2-0.1c0,0,1.8-0.3,1.8-1.1l-0.1-0.5l-0.5,0h0
	c-2.8,0-9.7-7.5-9.8-17.5l0-0.4c1.1-1,2.1-2,3.1-3.2l0,0c2.9,7,7.5,11.4,13.7,11c4.5-0.3,14.5-10.4,13.3-26.3
	C-274.4,61.1-268.6,59.8-270.3,49.5z M-334.7,113.4c3.6-1.9,8.6-8.8,9.1-17c1,0.8,2.1,1.4,3.2,2C-324.2,107.4-329.6,114-334.7,113.4
	z M-295.3,113.4c-5.1,0.6-10.5-6-12.3-15c1.1-0.5,2.2-1.2,3.2-1.9C-303.9,104.7-298.9,111.6-295.3,113.4z M-298.8,70h-2.9
	c-0.3,3.1-3,5.3-6.1,5c-2.7-0.3-4.8-2.4-5-5h-4.4c-0.3,3.1-3,5.3-6.1,5c-2.7-0.3-4.8-2.4-5-5h-2.9c-0.3,0-0.5-0.2-0.5-0.5
	s0.2-0.5,0.5-0.5h2.9c0.3-3.1,3-5.3,6.1-5c2.7,0.3,4.8,2.4,5,5h4.4c0.3-3.1,3-5.3,6.1-5c2.7,0.3,4.8,2.4,5,5h2.9
	c0.3,0,0.5,0.2,0.5,0.5S-298.5,70-298.8,70z"/>
<line class="st2" x1="-410.5" y1="149" x2="-220.5" y2="149"/>
<rect x="-378.1" y="160.8" style="fill:none;" width="126.8" height="21.9"/>
<text transform="matrix(1 0 0 1 -342.8149 181.9404)" class="st1" style="font-family:'Comfortaa'; font-size:27px; letter-spacing:5;">PHP</text>
<path class="st3" d="M99.9,187C52,187,14,148.8,13.6,101.1c-0.4-42,31.7-86.6,86.8-86.4c52.2,0.2,85.9,41.5,86,86.4
	C186.4,148.6,147.6,187,99.9,187z M101.8,82.9C95.3,77,89.7,71.5,81.6,70c-8.9-1.7-18.2,2-22.6,9.2c-4.3,7.1-3.3,14.8,2.9,22.4
	c1.6,1.9,3.4,3.7,5.1,5.5c3.1,3.3,4.9,6.9,1.6,11.1c-3.3,4.1-7.6,4.3-12.1,2.7c-5.8-2-3.1-5.8-1.8-9.4c1-2.8,0.2-5.5-2.2-7.5
	c-2.1-1.8-4.6-2.1-7-0.7c-2.7,1.5-3.5,4.2-3.3,7.2c0.2,4.2,2.3,7.4,5.4,10c7.2,6.1,19.2,7.4,27.6,3c10.2-5.4,13-15.8,6.4-25.3
	c-2.5-3.7-5.8-6.7-8.5-10.3c-4-5.4-1.9-11.5,4.3-13.1c10.1-2.6,23.5,10.4,21.1,20.4c-1.5,6.5-2.7,13.1-4,19.7
	c-2.2,10.9-3.9,22-8.7,32.2c-2.7,5.7-6.4,10.5-12.9,12.4c-1.3,0.4-2.8,0.5-3.6-1c-0.6-1.3,0.3-2.1,1.1-2.8c3.8-3.3,3.5-6.8,0.1-10
	c-3.4-3.2-7.2-2.7-10.6,0.1c-3.6,3-4.8,6.9-2.3,11.2c2.8,5,7.4,6.5,12.7,6.5c9.9-0.2,17.5-5.1,24-12c11.1-11.8,16.1-26.5,19.1-42
	c0.9-4.7,0.8-9.8,3-13.8c2.7-4.9,8.6-1.1,12.9-2.5c6-2,11.7-4,13.8-10.8c0.8-2.5,0.1-5-2.1-6.8c-1.7-1.4-3.6-1.6-5.5-0.6
	c-2.1,1-3.6,2.7-3.5,5.2c0.1,8.1-2.9,10.7-11,9.9c-3-0.3-3.7-1.2-3.2-4.1c1.6-8.8,3-17.6,6.9-25.8c2.1-4.4,5-8.3,10.1-9.2
	c3.9-0.7,8.7-2,5.4,5.4c-2,4.5,0.1,7.8,4.9,8.5c4.7,0.7,7.5-1.9,8.1-6.4c0.8-5.7-2.8-8.9-7.6-10.4c-10.4-3.3-19.2,0.4-26.8,7.4
	C110.7,62.4,106,71.9,101.8,82.9z"/>
</svg>
